<svg width="703" height="392" viewBox="0 0 703 392" fill="none" xmlns="http://www.w3.org/2000/svg">
    <line x1="122" y1="392.007" x2="122" y2="87.9925" stroke="white"/>
    <line x1="392.5" y1="297" x2="392.5" y2="26" stroke="white"/>
    <path d="M122.852 87.5225L392.5 26.5" stroke="white"/>
    <line x1="122.834" y1="391.528" x2="392.834" y2="296.528" stroke="white"/>
    <line x1="122.85" y1="247.523" x2="392.85" y2="162.523" stroke="white"/>
    <circle cx="662" cy="229" r="5" fill="white"/>
    <circle cx="245" cy="109" r="5" fill="white"/>
    <circle cx="52" cy="53" r="5" fill="white"/>
    <line x1="661.861" y1="229.48" x2="51.8614" y2="53.4804" stroke="white"/>
    <circle cx="206.491" cy="273.491" r="5" transform="rotate(-21.6286 206.491 273.491)" fill="white"/>
    <circle cx="31.4909" cy="290.491" r="5" transform="rotate(-21.6286 31.4909 290.491)" fill="white"/>
    <line x1="662.462" y1="229.498" x2="30.5391" y2="290.728" stroke="white"/>
    <path d="M642.851 204H641.442C641.358 203.595 641.213 203.239 641.004 202.932C640.8 202.625 640.55 202.367 640.254 202.159C639.963 201.947 639.639 201.788 639.283 201.682C638.927 201.576 638.555 201.523 638.169 201.523C637.464 201.523 636.826 201.701 636.254 202.057C635.686 202.413 635.233 202.938 634.896 203.631C634.563 204.324 634.396 205.174 634.396 206.182C634.396 207.189 634.563 208.04 634.896 208.733C635.233 209.426 635.686 209.951 636.254 210.307C636.826 210.663 637.464 210.841 638.169 210.841C638.555 210.841 638.927 210.788 639.283 210.682C639.639 210.576 639.963 210.419 640.254 210.21C640.55 209.998 640.8 209.739 641.004 209.432C641.213 209.121 641.358 208.765 641.442 208.364H642.851C642.745 208.958 642.552 209.491 642.271 209.96C641.991 210.43 641.643 210.83 641.226 211.159C640.809 211.485 640.341 211.733 639.822 211.903C639.307 212.074 638.756 212.159 638.169 212.159C637.177 212.159 636.294 211.917 635.521 211.432C634.749 210.947 634.141 210.258 633.697 209.364C633.254 208.47 633.033 207.409 633.033 206.182C633.033 204.955 633.254 203.894 633.697 203C634.141 202.106 634.749 201.417 635.521 200.932C636.294 200.447 637.177 200.205 638.169 200.205C638.756 200.205 639.307 200.29 639.822 200.46C640.341 200.631 640.809 200.881 641.226 201.21C641.643 201.536 641.991 201.934 642.271 202.403C642.552 202.869 642.745 203.402 642.851 204ZM647.514 212.205C646.961 212.205 646.459 212.1 646.009 211.892C645.558 211.68 645.2 211.375 644.935 210.977C644.67 210.576 644.537 210.091 644.537 209.523C644.537 209.023 644.635 208.617 644.832 208.307C645.029 207.992 645.293 207.746 645.622 207.568C645.952 207.39 646.315 207.258 646.713 207.17C647.115 207.08 647.518 207.008 647.923 206.955C648.454 206.886 648.884 206.835 649.213 206.801C649.546 206.763 649.789 206.701 649.94 206.614C650.096 206.527 650.173 206.375 650.173 206.159V206.114C650.173 205.553 650.02 205.117 649.713 204.807C649.41 204.496 648.95 204.341 648.332 204.341C647.692 204.341 647.19 204.481 646.827 204.761C646.463 205.042 646.207 205.341 646.06 205.659L644.787 205.205C645.014 204.674 645.317 204.261 645.696 203.966C646.079 203.667 646.495 203.458 646.946 203.341C647.401 203.22 647.848 203.159 648.287 203.159C648.567 203.159 648.889 203.193 649.253 203.261C649.62 203.326 649.974 203.46 650.315 203.665C650.66 203.869 650.946 204.178 651.173 204.591C651.401 205.004 651.514 205.557 651.514 206.25V212H650.173V210.818H650.105C650.014 211.008 649.863 211.21 649.651 211.426C649.438 211.642 649.156 211.826 648.804 211.977C648.452 212.129 648.022 212.205 647.514 212.205ZM647.719 211C648.249 211 648.696 210.896 649.06 210.688C649.427 210.479 649.704 210.21 649.889 209.881C650.079 209.551 650.173 209.205 650.173 208.841V207.614C650.116 207.682 649.991 207.744 649.798 207.801C649.609 207.854 649.389 207.902 649.139 207.943C648.893 207.981 648.652 208.015 648.418 208.045C648.187 208.072 647.999 208.095 647.855 208.114C647.507 208.159 647.181 208.233 646.878 208.335C646.579 208.434 646.336 208.583 646.151 208.784C645.969 208.981 645.878 209.25 645.878 209.591C645.878 210.057 646.05 210.409 646.395 210.648C646.743 210.883 647.185 211 647.719 211ZM653.962 212V203.273H655.257V204.636H655.371C655.553 204.17 655.846 203.809 656.251 203.551C656.657 203.29 657.143 203.159 657.712 203.159C658.287 203.159 658.767 203.29 659.149 203.551C659.536 203.809 659.837 204.17 660.053 204.636H660.143C660.367 204.186 660.702 203.828 661.149 203.562C661.596 203.294 662.132 203.159 662.757 203.159C663.537 203.159 664.176 203.403 664.672 203.892C665.168 204.377 665.416 205.133 665.416 206.159V212H664.075V206.159C664.075 205.515 663.899 205.055 663.547 204.778C663.195 204.502 662.78 204.364 662.303 204.364C661.689 204.364 661.214 204.549 660.876 204.92C660.539 205.288 660.371 205.754 660.371 206.318V212H659.007V206.023C659.007 205.527 658.846 205.127 658.524 204.824C658.202 204.517 657.787 204.364 657.28 204.364C656.931 204.364 656.606 204.456 656.303 204.642C656.003 204.828 655.761 205.085 655.575 205.415C655.393 205.741 655.303 206.117 655.303 206.545V212H653.962ZM671.527 212.182C670.686 212.182 669.961 211.996 669.351 211.625C668.745 211.25 668.277 210.727 667.947 210.057C667.622 209.383 667.459 208.598 667.459 207.705C667.459 206.811 667.622 206.023 667.947 205.341C668.277 204.655 668.735 204.121 669.322 203.739C669.913 203.352 670.603 203.159 671.391 203.159C671.845 203.159 672.294 203.235 672.737 203.386C673.18 203.538 673.584 203.784 673.947 204.125C674.311 204.462 674.601 204.909 674.817 205.466C675.033 206.023 675.141 206.708 675.141 207.523V208.091H668.413V206.932H673.777C673.777 206.439 673.679 206 673.482 205.614C673.288 205.227 673.012 204.922 672.652 204.699C672.296 204.475 671.875 204.364 671.391 204.364C670.857 204.364 670.394 204.496 670.004 204.761C669.618 205.023 669.321 205.364 669.112 205.784C668.904 206.205 668.8 206.655 668.8 207.136V207.909C668.8 208.568 668.913 209.127 669.141 209.585C669.372 210.04 669.692 210.386 670.101 210.625C670.51 210.86 670.985 210.977 671.527 210.977C671.879 210.977 672.197 210.928 672.482 210.83C672.769 210.727 673.018 210.576 673.226 210.375C673.434 210.17 673.595 209.917 673.709 209.614L675.004 209.977C674.868 210.417 674.639 210.803 674.317 211.136C673.995 211.466 673.597 211.723 673.124 211.909C672.65 212.091 672.118 212.182 671.527 212.182ZM677.18 212V203.273H678.476V204.591H678.567C678.726 204.159 679.014 203.809 679.43 203.54C679.847 203.271 680.317 203.136 680.839 203.136C680.938 203.136 681.061 203.138 681.209 203.142C681.357 203.146 681.468 203.152 681.544 203.159V204.523C681.499 204.511 681.394 204.494 681.232 204.472C681.072 204.445 680.904 204.432 680.726 204.432C680.302 204.432 679.923 204.521 679.589 204.699C679.26 204.873 678.999 205.116 678.805 205.426C678.616 205.733 678.521 206.083 678.521 206.477V212H677.18ZM685.702 212.205C685.149 212.205 684.647 212.1 684.196 211.892C683.745 211.68 683.387 211.375 683.122 210.977C682.857 210.576 682.724 210.091 682.724 209.523C682.724 209.023 682.823 208.617 683.02 208.307C683.217 207.992 683.48 207.746 683.81 207.568C684.139 207.39 684.503 207.258 684.901 207.17C685.302 207.08 685.705 207.008 686.111 206.955C686.641 206.886 687.071 206.835 687.401 206.801C687.734 206.763 687.976 206.701 688.128 206.614C688.283 206.527 688.361 206.375 688.361 206.159V206.114C688.361 205.553 688.207 205.117 687.901 204.807C687.598 204.496 687.137 204.341 686.52 204.341C685.88 204.341 685.378 204.481 685.014 204.761C684.651 205.042 684.395 205.341 684.247 205.659L682.974 205.205C683.202 204.674 683.505 204.261 683.884 203.966C684.266 203.667 684.683 203.458 685.134 203.341C685.588 203.22 686.035 203.159 686.474 203.159C686.755 203.159 687.077 203.193 687.44 203.261C687.808 203.326 688.162 203.46 688.503 203.665C688.848 203.869 689.134 204.178 689.361 204.591C689.588 205.004 689.702 205.557 689.702 206.25V212H688.361V210.818H688.293C688.202 211.008 688.05 211.21 687.838 211.426C687.626 211.642 687.344 211.826 686.991 211.977C686.639 212.129 686.209 212.205 685.702 212.205ZM685.906 211C686.437 211 686.884 210.896 687.247 210.688C687.615 210.479 687.891 210.21 688.077 209.881C688.266 209.551 688.361 209.205 688.361 208.841V207.614C688.304 207.682 688.179 207.744 687.986 207.801C687.796 207.854 687.577 207.902 687.327 207.943C687.08 207.981 686.84 208.015 686.605 208.045C686.374 208.072 686.187 208.095 686.043 208.114C685.694 208.159 685.368 208.233 685.065 208.335C684.766 208.434 684.524 208.583 684.338 208.784C684.156 208.981 684.065 209.25 684.065 209.591C684.065 210.057 684.238 210.409 684.582 210.648C684.931 210.883 685.372 211 685.906 211Z"
          fill="white"/>
    <path d="M317.492 12.2727C317.424 11.697 317.147 11.25 316.662 10.9318C316.177 10.6136 315.583 10.4545 314.878 10.4545C314.363 10.4545 313.912 10.5379 313.526 10.7045C313.143 10.8712 312.844 11.1004 312.628 11.392C312.416 11.6837 312.31 12.0152 312.31 12.3864C312.31 12.697 312.384 12.964 312.532 13.1875C312.683 13.4072 312.876 13.5909 313.111 13.7386C313.346 13.8826 313.592 14.0019 313.85 14.0966C314.107 14.1875 314.344 14.2614 314.56 14.3182L315.742 14.6364C316.045 14.7159 316.382 14.8258 316.753 14.9659C317.128 15.1061 317.486 15.2973 317.827 15.5398C318.172 15.7784 318.456 16.0852 318.679 16.4602C318.903 16.8352 319.015 17.2955 319.015 17.8409C319.015 18.4697 318.85 19.0379 318.52 19.5455C318.194 20.053 317.717 20.4564 317.088 20.7557C316.463 21.0549 315.704 21.2045 314.81 21.2045C313.977 21.2045 313.255 21.0701 312.645 20.8011C312.039 20.5322 311.562 20.1572 311.213 19.6761C310.869 19.1951 310.674 18.6364 310.628 18H312.083C312.121 18.4394 312.268 18.803 312.526 19.0909C312.787 19.375 313.117 19.5871 313.515 19.7273C313.916 19.8636 314.348 19.9318 314.81 19.9318C315.348 19.9318 315.831 19.8447 316.259 19.6705C316.687 19.4924 317.026 19.2462 317.276 18.9318C317.526 18.6136 317.651 18.2424 317.651 17.8182C317.651 17.4318 317.543 17.1174 317.327 16.875C317.111 16.6326 316.827 16.4356 316.475 16.2841C316.123 16.1326 315.742 16 315.333 15.8864L313.901 15.4773C312.992 15.2159 312.272 14.8428 311.742 14.358C311.212 13.8731 310.946 13.2386 310.946 12.4545C310.946 11.803 311.123 11.2348 311.475 10.75C311.831 10.2614 312.308 9.88258 312.907 9.61364C313.509 9.34091 314.181 9.20455 314.924 9.20455C315.674 9.20455 316.34 9.33901 316.924 9.60795C317.507 9.87311 317.969 10.2367 318.31 10.6989C318.655 11.161 318.837 11.6856 318.855 12.2727H317.492ZM324.695 21.1818C323.877 21.1818 323.172 20.9886 322.581 20.6023C321.99 20.2159 321.536 19.6837 321.218 19.0057C320.899 18.3277 320.74 17.553 320.74 16.6818C320.74 15.7955 320.903 15.0133 321.229 14.3352C321.559 13.6534 322.017 13.1212 322.604 12.7386C323.195 12.3523 323.884 12.1591 324.672 12.1591C325.286 12.1591 325.839 12.2727 326.331 12.5C326.824 12.7273 327.227 13.0455 327.542 13.4545C327.856 13.8636 328.051 14.3409 328.127 14.8864H326.786C326.684 14.4886 326.456 14.1364 326.104 13.8295C325.756 13.5189 325.286 13.3636 324.695 13.3636C324.172 13.3636 323.714 13.5 323.32 13.7727C322.93 14.0417 322.625 14.4223 322.405 14.9148C322.189 15.4034 322.081 15.9773 322.081 16.6364C322.081 17.3106 322.187 17.8977 322.399 18.3977C322.615 18.8977 322.918 19.286 323.309 19.5625C323.703 19.839 324.165 19.9773 324.695 19.9773C325.043 19.9773 325.36 19.9167 325.644 19.7955C325.928 19.6742 326.168 19.5 326.365 19.2727C326.562 19.0455 326.703 18.7727 326.786 18.4545H328.127C328.051 18.9697 327.864 19.4337 327.564 19.8466C327.269 20.2557 326.877 20.5814 326.388 20.8239C325.903 21.0625 325.339 21.1818 324.695 21.1818ZM330.087 21V12.2727H331.382V13.5909H331.473C331.632 13.1591 331.92 12.8087 332.337 12.5398C332.754 12.2708 333.223 12.1364 333.746 12.1364C333.845 12.1364 333.968 12.1383 334.115 12.142C334.263 12.1458 334.375 12.1515 334.451 12.1591V13.5227C334.405 13.5114 334.301 13.4943 334.138 13.4716C333.979 13.4451 333.81 13.4318 333.632 13.4318C333.208 13.4318 332.829 13.5208 332.496 13.6989C332.167 13.8731 331.905 14.1155 331.712 14.4261C331.523 14.733 331.428 15.0833 331.428 15.4773V21H330.087ZM339.434 21.1818C338.593 21.1818 337.867 20.9962 337.257 20.625C336.651 20.25 336.184 19.7273 335.854 19.0568C335.528 18.3826 335.365 17.5985 335.365 16.7045C335.365 15.8106 335.528 15.0227 335.854 14.3409C336.184 13.6553 336.642 13.1212 337.229 12.7386C337.82 12.3523 338.509 12.1591 339.297 12.1591C339.752 12.1591 340.201 12.2348 340.644 12.3864C341.087 12.5379 341.49 12.7841 341.854 13.125C342.218 13.4621 342.507 13.9091 342.723 14.4659C342.939 15.0227 343.047 15.7083 343.047 16.5227V17.0909H336.32V15.9318H341.684C341.684 15.4394 341.585 15 341.388 14.6136C341.195 14.2273 340.918 13.9223 340.559 13.6989C340.203 13.4754 339.782 13.3636 339.297 13.3636C338.763 13.3636 338.301 13.4962 337.911 13.7614C337.524 14.0227 337.227 14.3636 337.019 14.7841C336.81 15.2045 336.706 15.6553 336.706 16.1364V16.9091C336.706 17.5682 336.82 18.1269 337.047 18.5852C337.278 19.0398 337.598 19.3864 338.007 19.625C338.417 19.8598 338.892 19.9773 339.434 19.9773C339.786 19.9773 340.104 19.928 340.388 19.8295C340.676 19.7273 340.924 19.5758 341.132 19.375C341.341 19.1705 341.502 18.9167 341.615 18.6136L342.911 18.9773C342.774 19.4167 342.545 19.803 342.223 20.1364C341.901 20.4659 341.504 20.7235 341.03 20.9091C340.557 21.0909 340.024 21.1818 339.434 21.1818ZM348.746 21.1818C347.905 21.1818 347.18 20.9962 346.57 20.625C345.964 20.25 345.496 19.7273 345.167 19.0568C344.841 18.3826 344.678 17.5985 344.678 16.7045C344.678 15.8106 344.841 15.0227 345.167 14.3409C345.496 13.6553 345.954 13.1212 346.542 12.7386C347.132 12.3523 347.822 12.1591 348.61 12.1591C349.064 12.1591 349.513 12.2348 349.956 12.3864C350.399 12.5379 350.803 12.7841 351.167 13.125C351.53 13.4621 351.82 13.9091 352.036 14.4659C352.252 15.0227 352.36 15.7083 352.36 16.5227V17.0909H345.632V15.9318H350.996C350.996 15.4394 350.898 15 350.701 14.6136C350.507 14.2273 350.231 13.9223 349.871 13.6989C349.515 13.4754 349.095 13.3636 348.61 13.3636C348.076 13.3636 347.614 13.4962 347.223 13.7614C346.837 14.0227 346.54 14.3636 346.331 14.7841C346.123 15.2045 346.019 15.6553 346.019 16.1364V16.9091C346.019 17.5682 346.132 18.1269 346.36 18.5852C346.591 19.0398 346.911 19.3864 347.32 19.625C347.729 19.8598 348.204 19.9773 348.746 19.9773C349.098 19.9773 349.417 19.928 349.701 19.8295C349.989 19.7273 350.237 19.5758 350.445 19.375C350.653 19.1705 350.814 18.9167 350.928 18.6136L352.223 18.9773C352.087 19.4167 351.858 19.803 351.536 20.1364C351.214 20.4659 350.816 20.7235 350.343 20.9091C349.869 21.0909 349.337 21.1818 348.746 21.1818ZM355.74 15.75V21H354.399V12.2727H355.695V13.6364H355.809C356.013 13.1932 356.324 12.8371 356.74 12.5682C357.157 12.2955 357.695 12.1591 358.354 12.1591C358.945 12.1591 359.462 12.2803 359.905 12.5227C360.348 12.7614 360.693 13.125 360.939 13.6136C361.185 14.0985 361.309 14.7121 361.309 15.4545V21H359.968V15.5455C359.968 14.8598 359.79 14.3258 359.434 13.9432C359.078 13.5568 358.589 13.3636 357.968 13.3636C357.54 13.3636 357.157 13.4564 356.82 13.642C356.487 13.8277 356.223 14.0985 356.03 14.4545C355.837 14.8106 355.74 15.2424 355.74 15.75Z"
          fill="white"/>
    <line x1="277.5" y1="337" x2="277.5" y2="53" stroke="white"/>
    <path d="M284.638 155.273C284.411 155.273 284.208 155.254 284.03 155.216C283.852 155.182 283.729 155.148 283.661 155.114L284.001 153.932C284.327 154.015 284.615 154.045 284.865 154.023C285.115 154 285.337 153.888 285.53 153.688C285.727 153.491 285.907 153.17 286.07 152.727L286.32 152.045L283.092 143.273H284.547L286.956 150.227H287.047L289.456 143.273H290.911L287.206 153.273C287.039 153.723 286.833 154.097 286.587 154.392C286.34 154.691 286.054 154.913 285.729 155.057C285.407 155.201 285.043 155.273 284.638 155.273Z"
          fill="white"/>
    <path d="M343.907 181.273L345.998 184.841L348.089 181.273H349.634L346.816 185.636L349.634 190H348.089L345.998 186.614L343.907 190H342.362L345.134 185.636L342.362 181.273H343.907Z"
          fill="white"/>
    <path d="M28.9638 41V29.3636H32.8956C33.8085 29.3636 34.5547 29.5284 35.1342 29.858C35.7176 30.1837 36.1494 30.625 36.4297 31.1818C36.71 31.7386 36.8501 32.3598 36.8501 33.0455C36.8501 33.7311 36.71 34.3542 36.4297 34.9148C36.1532 35.4754 35.7251 35.9223 35.1456 36.2557C34.5661 36.5852 33.8236 36.75 32.9183 36.75H30.1001V35.5H32.8729C33.4979 35.5 33.9998 35.392 34.3786 35.1761C34.7573 34.9602 35.032 34.6686 35.2024 34.3011C35.3767 33.9299 35.4638 33.5114 35.4638 33.0455C35.4638 32.5795 35.3767 32.1629 35.2024 31.7955C35.032 31.428 34.7554 31.1402 34.3729 30.9318C33.9903 30.7197 33.4827 30.6136 32.8501 30.6136H30.3729V41H28.9638ZM42.3899 41.1818C41.602 41.1818 40.9107 40.9943 40.3161 40.6193C39.7251 40.2443 39.263 39.7197 38.9297 39.0455C38.6001 38.3712 38.4354 37.5833 38.4354 36.6818C38.4354 35.7727 38.6001 34.9792 38.9297 34.3011C39.263 33.6231 39.7251 33.0966 40.3161 32.7216C40.9107 32.3466 41.602 32.1591 42.3899 32.1591C43.1778 32.1591 43.8672 32.3466 44.4581 32.7216C45.0528 33.0966 45.5149 33.6231 45.8445 34.3011C46.1778 34.9792 46.3445 35.7727 46.3445 36.6818C46.3445 37.5833 46.1778 38.3712 45.8445 39.0455C45.5149 39.7197 45.0528 40.2443 44.4581 40.6193C43.8672 40.9943 43.1778 41.1818 42.3899 41.1818ZM42.3899 39.9773C42.9884 39.9773 43.4808 39.8239 43.8672 39.517C44.2536 39.2102 44.5395 38.8068 44.7251 38.3068C44.9107 37.8068 45.0036 37.2652 45.0036 36.6818C45.0036 36.0985 44.9107 35.5549 44.7251 35.0511C44.5395 34.5473 44.2536 34.1402 43.8672 33.8295C43.4808 33.5189 42.9884 33.3636 42.3899 33.3636C41.7914 33.3636 41.299 33.5189 40.9126 33.8295C40.5263 34.1402 40.2403 34.5473 40.0547 35.0511C39.8691 35.5549 39.7763 36.0985 39.7763 36.6818C39.7763 37.2652 39.8691 37.8068 40.0547 38.3068C40.2403 38.8068 40.5263 39.2102 40.9126 39.517C41.299 39.8239 41.7914 39.9773 42.3899 39.9773ZM48.3913 41V32.2727H49.7322V41H48.3913ZM49.0732 30.8182C48.8118 30.8182 48.5864 30.7292 48.397 30.5511C48.2114 30.3731 48.1186 30.1591 48.1186 29.9091C48.1186 29.6591 48.2114 29.4451 48.397 29.267C48.5864 29.089 48.8118 29 49.0732 29C49.3345 29 49.558 29.089 49.7436 29.267C49.933 29.4451 50.0277 29.6591 50.0277 29.9091C50.0277 30.1591 49.933 30.3731 49.7436 30.5511C49.558 30.7292 49.3345 30.8182 49.0732 30.8182ZM53.5291 35.75V41H52.1882V32.2727H53.4837V33.6364H53.5973C53.8018 33.1932 54.1125 32.8371 54.5291 32.5682C54.9458 32.2955 55.4837 32.1591 56.1428 32.1591C56.7337 32.1591 57.2507 32.2803 57.6939 32.5227C58.1371 32.7614 58.4818 33.125 58.728 33.6136C58.9742 34.0985 59.0973 34.7121 59.0973 35.4545V41H57.7564V35.5455C57.7564 34.8598 57.5784 34.3258 57.2223 33.9432C56.8662 33.5568 56.3776 33.3636 55.7564 33.3636C55.3284 33.3636 54.9458 33.4564 54.6087 33.642C54.2753 33.8277 54.0121 34.0985 53.8189 34.4545C53.6257 34.8106 53.5291 35.2424 53.5291 35.75ZM65.343 32.2727V33.4091H60.8203V32.2727H65.343ZM62.1385 30.1818H63.4794V38.5C63.4794 38.8788 63.5343 39.1629 63.6442 39.3523C63.7578 39.5379 63.9018 39.6629 64.076 39.7273C64.254 39.7879 64.4415 39.8182 64.6385 39.8182C64.7862 39.8182 64.9074 39.8106 65.0021 39.7955C65.0968 39.7765 65.1726 39.7614 65.2294 39.75L65.5021 40.9545C65.4112 40.9886 65.2843 41.0227 65.1214 41.0568C64.9586 41.0947 64.7521 41.1136 64.5021 41.1136C64.1233 41.1136 63.7521 41.0322 63.3885 40.8693C63.0286 40.7064 62.7294 40.4583 62.4908 40.125C62.2559 39.7917 62.1385 39.3712 62.1385 38.8636V30.1818ZM72.5192 41H71.0419L75.3146 29.3636H76.7692L81.0419 41H79.5646L76.0874 31.2045H75.9964L72.5192 41ZM73.0646 36.4545H79.0192V37.7045H73.0646V36.4545Z"
          fill="white"/>
    <path d="M157.015 124H155.606C155.522 123.595 155.377 123.239 155.168 122.932C154.964 122.625 154.714 122.367 154.418 122.159C154.127 121.947 153.803 121.788 153.447 121.682C153.091 121.576 152.719 121.523 152.333 121.523C151.629 121.523 150.99 121.701 150.418 122.057C149.85 122.413 149.397 122.938 149.06 123.631C148.727 124.324 148.56 125.174 148.56 126.182C148.56 127.189 148.727 128.04 149.06 128.733C149.397 129.426 149.85 129.951 150.418 130.307C150.99 130.663 151.629 130.841 152.333 130.841C152.719 130.841 153.091 130.788 153.447 130.682C153.803 130.576 154.127 130.419 154.418 130.21C154.714 129.998 154.964 129.739 155.168 129.432C155.377 129.121 155.522 128.765 155.606 128.364H157.015C156.909 128.958 156.716 129.491 156.435 129.96C156.155 130.43 155.807 130.83 155.39 131.159C154.973 131.485 154.505 131.733 153.987 131.903C153.471 132.074 152.92 132.159 152.333 132.159C151.341 132.159 150.458 131.917 149.685 131.432C148.913 130.947 148.305 130.258 147.862 129.364C147.418 128.47 147.197 127.409 147.197 126.182C147.197 124.955 147.418 123.894 147.862 123C148.305 122.106 148.913 121.417 149.685 120.932C150.458 120.447 151.341 120.205 152.333 120.205C152.92 120.205 153.471 120.29 153.987 120.46C154.505 120.631 154.973 120.881 155.39 121.21C155.807 121.536 156.155 121.934 156.435 122.403C156.716 122.869 156.909 123.402 157.015 124ZM162.656 132.182C161.868 132.182 161.176 131.994 160.582 131.619C159.991 131.244 159.529 130.72 159.195 130.045C158.866 129.371 158.701 128.583 158.701 127.682C158.701 126.773 158.866 125.979 159.195 125.301C159.529 124.623 159.991 124.097 160.582 123.722C161.176 123.347 161.868 123.159 162.656 123.159C163.443 123.159 164.133 123.347 164.724 123.722C165.318 124.097 165.781 124.623 166.11 125.301C166.443 125.979 166.61 126.773 166.61 127.682C166.61 128.583 166.443 129.371 166.11 130.045C165.781 130.72 165.318 131.244 164.724 131.619C164.133 131.994 163.443 132.182 162.656 132.182ZM162.656 130.977C163.254 130.977 163.746 130.824 164.133 130.517C164.519 130.21 164.805 129.807 164.991 129.307C165.176 128.807 165.269 128.265 165.269 127.682C165.269 127.098 165.176 126.555 164.991 126.051C164.805 125.547 164.519 125.14 164.133 124.83C163.746 124.519 163.254 124.364 162.656 124.364C162.057 124.364 161.565 124.519 161.178 124.83C160.792 125.14 160.506 125.547 160.32 126.051C160.135 126.555 160.042 127.098 160.042 127.682C160.042 128.265 160.135 128.807 160.32 129.307C160.506 129.807 160.792 130.21 161.178 130.517C161.565 130.824 162.057 130.977 162.656 130.977ZM169.998 126.75V132H168.657V123.273H169.952V124.636H170.066C170.271 124.193 170.581 123.837 170.998 123.568C171.415 123.295 171.952 123.159 172.612 123.159C173.202 123.159 173.719 123.28 174.163 123.523C174.606 123.761 174.951 124.125 175.197 124.614C175.443 125.098 175.566 125.712 175.566 126.455V132H174.225V126.545C174.225 125.86 174.047 125.326 173.691 124.943C173.335 124.557 172.846 124.364 172.225 124.364C171.797 124.364 171.415 124.456 171.077 124.642C170.744 124.828 170.481 125.098 170.288 125.455C170.094 125.811 169.998 126.242 169.998 126.75ZM181.812 123.273V124.409H177.289V123.273H181.812ZM178.607 121.182H179.948V129.5C179.948 129.879 180.003 130.163 180.113 130.352C180.227 130.538 180.371 130.663 180.545 130.727C180.723 130.788 180.91 130.818 181.107 130.818C181.255 130.818 181.376 130.811 181.471 130.795C181.566 130.777 181.641 130.761 181.698 130.75L181.971 131.955C181.88 131.989 181.753 132.023 181.59 132.057C181.427 132.095 181.221 132.114 180.971 132.114C180.592 132.114 180.221 132.032 179.857 131.869C179.497 131.706 179.198 131.458 178.96 131.125C178.725 130.792 178.607 130.371 178.607 129.864V121.182ZM186.397 132.205C185.844 132.205 185.342 132.1 184.891 131.892C184.441 131.68 184.083 131.375 183.817 130.977C183.552 130.576 183.42 130.091 183.42 129.523C183.42 129.023 183.518 128.617 183.715 128.307C183.912 127.992 184.175 127.746 184.505 127.568C184.835 127.39 185.198 127.258 185.596 127.17C185.997 127.08 186.401 127.008 186.806 126.955C187.336 126.886 187.766 126.835 188.096 126.801C188.429 126.763 188.672 126.701 188.823 126.614C188.978 126.527 189.056 126.375 189.056 126.159V126.114C189.056 125.553 188.903 125.117 188.596 124.807C188.293 124.496 187.833 124.341 187.215 124.341C186.575 124.341 186.073 124.481 185.71 124.761C185.346 125.042 185.09 125.341 184.942 125.659L183.67 125.205C183.897 124.674 184.2 124.261 184.579 123.966C184.961 123.667 185.378 123.458 185.829 123.341C186.283 123.22 186.73 123.159 187.17 123.159C187.45 123.159 187.772 123.193 188.136 123.261C188.503 123.326 188.857 123.46 189.198 123.665C189.543 123.869 189.829 124.178 190.056 124.591C190.283 125.004 190.397 125.557 190.397 126.25V132H189.056V130.818H188.988C188.897 131.008 188.746 131.21 188.533 131.426C188.321 131.642 188.039 131.826 187.687 131.977C187.335 132.129 186.905 132.205 186.397 132.205ZM186.602 131C187.132 131 187.579 130.896 187.942 130.688C188.31 130.479 188.586 130.21 188.772 129.881C188.961 129.551 189.056 129.205 189.056 128.841V127.614C188.999 127.682 188.874 127.744 188.681 127.801C188.492 127.854 188.272 127.902 188.022 127.943C187.776 127.981 187.535 128.015 187.3 128.045C187.069 128.072 186.882 128.095 186.738 128.114C186.389 128.159 186.064 128.233 185.761 128.335C185.461 128.434 185.219 128.583 185.033 128.784C184.852 128.981 184.761 129.25 184.761 129.591C184.761 130.057 184.933 130.409 185.278 130.648C185.626 130.883 186.067 131 186.602 131ZM196.39 132.182C195.572 132.182 194.867 131.989 194.276 131.602C193.685 131.216 193.231 130.684 192.913 130.006C192.594 129.328 192.435 128.553 192.435 127.682C192.435 126.795 192.598 126.013 192.924 125.335C193.254 124.653 193.712 124.121 194.299 123.739C194.89 123.352 195.579 123.159 196.367 123.159C196.981 123.159 197.534 123.273 198.026 123.5C198.519 123.727 198.922 124.045 199.237 124.455C199.551 124.864 199.746 125.341 199.822 125.886H198.481C198.379 125.489 198.151 125.136 197.799 124.83C197.451 124.519 196.981 124.364 196.39 124.364C195.867 124.364 195.409 124.5 195.015 124.773C194.625 125.042 194.32 125.422 194.1 125.915C193.884 126.403 193.776 126.977 193.776 127.636C193.776 128.311 193.882 128.898 194.094 129.398C194.31 129.898 194.613 130.286 195.004 130.562C195.397 130.839 195.86 130.977 196.39 130.977C196.738 130.977 197.055 130.917 197.339 130.795C197.623 130.674 197.863 130.5 198.06 130.273C198.257 130.045 198.397 129.773 198.481 129.455H199.822C199.746 129.97 199.558 130.434 199.259 130.847C198.964 131.256 198.572 131.581 198.083 131.824C197.598 132.062 197.034 132.182 196.39 132.182ZM205.577 123.273V124.409H201.055V123.273H205.577ZM202.373 121.182H203.714V129.5C203.714 129.879 203.769 130.163 203.879 130.352C203.992 130.538 204.136 130.663 204.31 130.727C204.488 130.788 204.676 130.818 204.873 130.818C205.021 130.818 205.142 130.811 205.237 130.795C205.331 130.777 205.407 130.761 205.464 130.75L205.737 131.955C205.646 131.989 205.519 132.023 205.356 132.057C205.193 132.095 204.987 132.114 204.737 132.114C204.358 132.114 203.987 132.032 203.623 131.869C203.263 131.706 202.964 131.458 202.725 131.125C202.49 130.792 202.373 130.371 202.373 129.864V121.182ZM212.276 132V120.364H216.208C217.121 120.364 217.867 120.528 218.447 120.858C219.03 121.184 219.462 121.625 219.742 122.182C220.022 122.739 220.163 123.36 220.163 124.045C220.163 124.731 220.022 125.354 219.742 125.915C219.466 126.475 219.038 126.922 218.458 127.256C217.879 127.585 217.136 127.75 216.231 127.75H213.413V126.5H216.185C216.81 126.5 217.312 126.392 217.691 126.176C218.07 125.96 218.344 125.669 218.515 125.301C218.689 124.93 218.776 124.511 218.776 124.045C218.776 123.58 218.689 123.163 218.515 122.795C218.344 122.428 218.068 122.14 217.685 121.932C217.303 121.72 216.795 121.614 216.163 121.614H213.685V132H212.276ZM225.702 132.182C224.915 132.182 224.223 131.994 223.629 131.619C223.038 131.244 222.576 130.72 222.242 130.045C221.913 129.371 221.748 128.583 221.748 127.682C221.748 126.773 221.913 125.979 222.242 125.301C222.576 124.623 223.038 124.097 223.629 123.722C224.223 123.347 224.915 123.159 225.702 123.159C226.49 123.159 227.18 123.347 227.771 123.722C228.365 124.097 228.827 124.623 229.157 125.301C229.49 125.979 229.657 126.773 229.657 127.682C229.657 128.583 229.49 129.371 229.157 130.045C228.827 130.72 228.365 131.244 227.771 131.619C227.18 131.994 226.49 132.182 225.702 132.182ZM225.702 130.977C226.301 130.977 226.793 130.824 227.18 130.517C227.566 130.21 227.852 129.807 228.038 129.307C228.223 128.807 228.316 128.265 228.316 127.682C228.316 127.098 228.223 126.555 228.038 126.051C227.852 125.547 227.566 125.14 227.18 124.83C226.793 124.519 226.301 124.364 225.702 124.364C225.104 124.364 224.612 124.519 224.225 124.83C223.839 125.14 223.553 125.547 223.367 126.051C223.182 126.555 223.089 127.098 223.089 127.682C223.089 128.265 223.182 128.807 223.367 129.307C223.553 129.807 223.839 130.21 224.225 130.517C224.612 130.824 225.104 130.977 225.702 130.977ZM231.704 132V123.273H233.045V132H231.704ZM232.386 121.818C232.124 121.818 231.899 121.729 231.71 121.551C231.524 121.373 231.431 121.159 231.431 120.909C231.431 120.659 231.524 120.445 231.71 120.267C231.899 120.089 232.124 120 232.386 120C232.647 120 232.871 120.089 233.056 120.267C233.246 120.445 233.34 120.659 233.34 120.909C233.34 121.159 233.246 121.373 233.056 121.551C232.871 121.729 232.647 121.818 232.386 121.818ZM236.842 126.75V132H235.501V123.273H236.796V124.636H236.91C237.114 124.193 237.425 123.837 237.842 123.568C238.258 123.295 238.796 123.159 239.455 123.159C240.046 123.159 240.563 123.28 241.006 123.523C241.45 123.761 241.794 124.125 242.04 124.614C242.287 125.098 242.41 125.712 242.41 126.455V132H241.069V126.545C241.069 125.86 240.891 125.326 240.535 124.943C240.179 124.557 239.69 124.364 239.069 124.364C238.641 124.364 238.258 124.456 237.921 124.642C237.588 124.828 237.325 125.098 237.131 125.455C236.938 125.811 236.842 126.242 236.842 126.75ZM248.656 123.273V124.409H244.133V123.273H248.656ZM245.451 121.182H246.792V129.5C246.792 129.879 246.847 130.163 246.957 130.352C247.07 130.538 247.214 130.663 247.388 130.727C247.567 130.788 247.754 130.818 247.951 130.818C248.099 130.818 248.22 130.811 248.315 130.795C248.409 130.777 248.485 130.761 248.542 130.75L248.815 131.955C248.724 131.989 248.597 132.023 248.434 132.057C248.271 132.095 248.065 132.114 247.815 132.114C247.436 132.114 247.065 132.032 246.701 131.869C246.341 131.706 246.042 131.458 245.803 131.125C245.568 130.792 245.451 130.371 245.451 129.864V121.182ZM255.832 132H254.354L258.627 120.364H260.082L264.354 132H262.877L259.4 122.205H259.309L255.832 132ZM256.377 127.455H262.332V128.705H256.377V127.455Z"
          fill="white"/>
    <path d="M157.218 290H155.809C155.726 289.595 155.58 289.239 155.371 288.932C155.167 288.625 154.917 288.367 154.621 288.159C154.33 287.947 154.006 287.788 153.65 287.682C153.294 287.576 152.923 287.523 152.536 287.523C151.832 287.523 151.193 287.701 150.621 288.057C150.053 288.413 149.601 288.938 149.263 289.631C148.93 290.324 148.763 291.174 148.763 292.182C148.763 293.189 148.93 294.04 149.263 294.733C149.601 295.426 150.053 295.951 150.621 296.307C151.193 296.663 151.832 296.841 152.536 296.841C152.923 296.841 153.294 296.788 153.65 296.682C154.006 296.576 154.33 296.419 154.621 296.21C154.917 295.998 155.167 295.739 155.371 295.432C155.58 295.121 155.726 294.765 155.809 294.364H157.218C157.112 294.958 156.919 295.491 156.638 295.96C156.358 296.43 156.01 296.83 155.593 297.159C155.176 297.485 154.709 297.733 154.19 297.903C153.674 298.074 153.123 298.159 152.536 298.159C151.544 298.159 150.661 297.917 149.888 297.432C149.116 296.947 148.508 296.258 148.065 295.364C147.621 294.47 147.4 293.409 147.4 292.182C147.4 290.955 147.621 289.894 148.065 289C148.508 288.106 149.116 287.417 149.888 286.932C150.661 286.447 151.544 286.205 152.536 286.205C153.123 286.205 153.674 286.29 154.19 286.46C154.709 286.631 155.176 286.881 155.593 287.21C156.01 287.536 156.358 287.934 156.638 288.403C156.919 288.869 157.112 289.402 157.218 290ZM162.859 298.182C162.071 298.182 161.379 297.994 160.785 297.619C160.194 297.244 159.732 296.72 159.398 296.045C159.069 295.371 158.904 294.583 158.904 293.682C158.904 292.773 159.069 291.979 159.398 291.301C159.732 290.623 160.194 290.097 160.785 289.722C161.379 289.347 162.071 289.159 162.859 289.159C163.647 289.159 164.336 289.347 164.927 289.722C165.522 290.097 165.984 290.623 166.313 291.301C166.647 291.979 166.813 292.773 166.813 293.682C166.813 294.583 166.647 295.371 166.313 296.045C165.984 296.72 165.522 297.244 164.927 297.619C164.336 297.994 163.647 298.182 162.859 298.182ZM162.859 296.977C163.457 296.977 163.95 296.824 164.336 296.517C164.722 296.21 165.008 295.807 165.194 295.307C165.379 294.807 165.472 294.265 165.472 293.682C165.472 293.098 165.379 292.555 165.194 292.051C165.008 291.547 164.722 291.14 164.336 290.83C163.95 290.519 163.457 290.364 162.859 290.364C162.26 290.364 161.768 290.519 161.381 290.83C160.995 291.14 160.709 291.547 160.523 292.051C160.338 292.555 160.245 293.098 160.245 293.682C160.245 294.265 160.338 294.807 160.523 295.307C160.709 295.807 160.995 296.21 161.381 296.517C161.768 296.824 162.26 296.977 162.859 296.977ZM170.201 292.75V298H168.86V289.273H170.156V290.636H170.269C170.474 290.193 170.784 289.837 171.201 289.568C171.618 289.295 172.156 289.159 172.815 289.159C173.406 289.159 173.923 289.28 174.366 289.523C174.809 289.761 175.154 290.125 175.4 290.614C175.646 291.098 175.769 291.712 175.769 292.455V298H174.428V292.545C174.428 291.86 174.25 291.326 173.894 290.943C173.538 290.557 173.049 290.364 172.428 290.364C172 290.364 171.618 290.456 171.281 290.642C170.947 290.828 170.684 291.098 170.491 291.455C170.298 291.811 170.201 292.242 170.201 292.75ZM182.015 289.273V290.409H177.492V289.273H182.015ZM178.81 287.182H180.151V295.5C180.151 295.879 180.206 296.163 180.316 296.352C180.43 296.538 180.574 296.663 180.748 296.727C180.926 296.788 181.113 296.818 181.31 296.818C181.458 296.818 181.579 296.811 181.674 296.795C181.769 296.777 181.844 296.761 181.901 296.75L182.174 297.955C182.083 297.989 181.956 298.023 181.793 298.057C181.63 298.095 181.424 298.114 181.174 298.114C180.795 298.114 180.424 298.032 180.06 297.869C179.701 297.706 179.401 297.458 179.163 297.125C178.928 296.792 178.81 296.371 178.81 295.864V287.182ZM186.6 298.205C186.047 298.205 185.545 298.1 185.094 297.892C184.644 297.68 184.286 297.375 184.021 296.977C183.755 296.576 183.623 296.091 183.623 295.523C183.623 295.023 183.721 294.617 183.918 294.307C184.115 293.992 184.379 293.746 184.708 293.568C185.038 293.39 185.401 293.258 185.799 293.17C186.201 293.08 186.604 293.008 187.009 292.955C187.54 292.886 187.969 292.835 188.299 292.801C188.632 292.763 188.875 292.701 189.026 292.614C189.182 292.527 189.259 292.375 189.259 292.159V292.114C189.259 291.553 189.106 291.117 188.799 290.807C188.496 290.496 188.036 290.341 187.418 290.341C186.778 290.341 186.276 290.481 185.913 290.761C185.549 291.042 185.293 291.341 185.146 291.659L183.873 291.205C184.1 290.674 184.403 290.261 184.782 289.966C185.165 289.667 185.581 289.458 186.032 289.341C186.487 289.22 186.933 289.159 187.373 289.159C187.653 289.159 187.975 289.193 188.339 289.261C188.706 289.326 189.06 289.46 189.401 289.665C189.746 289.869 190.032 290.178 190.259 290.591C190.487 291.004 190.6 291.557 190.6 292.25V298H189.259V296.818H189.191C189.1 297.008 188.949 297.21 188.737 297.426C188.524 297.642 188.242 297.826 187.89 297.977C187.538 298.129 187.108 298.205 186.6 298.205ZM186.805 297C187.335 297 187.782 296.896 188.146 296.688C188.513 296.479 188.79 296.21 188.975 295.881C189.165 295.551 189.259 295.205 189.259 294.841V293.614C189.202 293.682 189.077 293.744 188.884 293.801C188.695 293.854 188.475 293.902 188.225 293.943C187.979 293.981 187.738 294.015 187.504 294.045C187.272 294.072 187.085 294.095 186.941 294.114C186.593 294.159 186.267 294.233 185.964 294.335C185.665 294.434 185.422 294.583 185.237 294.784C185.055 294.981 184.964 295.25 184.964 295.591C184.964 296.057 185.136 296.409 185.481 296.648C185.829 296.883 186.271 297 186.805 297ZM196.593 298.182C195.775 298.182 195.07 297.989 194.479 297.602C193.888 297.216 193.434 296.684 193.116 296.006C192.798 295.328 192.638 294.553 192.638 293.682C192.638 292.795 192.801 292.013 193.127 291.335C193.457 290.653 193.915 290.121 194.502 289.739C195.093 289.352 195.782 289.159 196.57 289.159C197.184 289.159 197.737 289.273 198.229 289.5C198.722 289.727 199.125 290.045 199.44 290.455C199.754 290.864 199.949 291.341 200.025 291.886H198.684C198.582 291.489 198.354 291.136 198.002 290.83C197.654 290.519 197.184 290.364 196.593 290.364C196.07 290.364 195.612 290.5 195.218 290.773C194.828 291.042 194.523 291.422 194.303 291.915C194.087 292.403 193.979 292.977 193.979 293.636C193.979 294.311 194.085 294.898 194.298 295.398C194.513 295.898 194.817 296.286 195.207 296.562C195.601 296.839 196.063 296.977 196.593 296.977C196.942 296.977 197.258 296.917 197.542 296.795C197.826 296.674 198.067 296.5 198.263 296.273C198.46 296.045 198.601 295.773 198.684 295.455H200.025C199.949 295.97 199.762 296.434 199.462 296.847C199.167 297.256 198.775 297.581 198.286 297.824C197.801 298.062 197.237 298.182 196.593 298.182ZM205.781 289.273V290.409H201.258V289.273H205.781ZM202.576 287.182H203.917V295.5C203.917 295.879 203.972 296.163 204.082 296.352C204.195 296.538 204.339 296.663 204.513 296.727C204.692 296.788 204.879 296.818 205.076 296.818C205.224 296.818 205.345 296.811 205.44 296.795C205.534 296.777 205.61 296.761 205.667 296.75L205.94 297.955C205.849 297.989 205.722 298.023 205.559 298.057C205.396 298.095 205.19 298.114 204.94 298.114C204.561 298.114 204.19 298.032 203.826 297.869C203.466 297.706 203.167 297.458 202.928 297.125C202.693 296.792 202.576 296.371 202.576 295.864V287.182ZM212.479 298V286.364H216.411C217.324 286.364 218.07 286.528 218.65 286.858C219.233 287.184 219.665 287.625 219.945 288.182C220.226 288.739 220.366 289.36 220.366 290.045C220.366 290.731 220.226 291.354 219.945 291.915C219.669 292.475 219.241 292.922 218.661 293.256C218.082 293.585 217.339 293.75 216.434 293.75H213.616V292.5H216.388C217.013 292.5 217.515 292.392 217.894 292.176C218.273 291.96 218.548 291.669 218.718 291.301C218.892 290.93 218.979 290.511 218.979 290.045C218.979 289.58 218.892 289.163 218.718 288.795C218.548 288.428 218.271 288.14 217.888 287.932C217.506 287.72 216.998 287.614 216.366 287.614H213.888V298H212.479ZM225.906 298.182C225.118 298.182 224.426 297.994 223.832 297.619C223.241 297.244 222.779 296.72 222.445 296.045C222.116 295.371 221.951 294.583 221.951 293.682C221.951 292.773 222.116 291.979 222.445 291.301C222.779 290.623 223.241 290.097 223.832 289.722C224.426 289.347 225.118 289.159 225.906 289.159C226.693 289.159 227.383 289.347 227.974 289.722C228.568 290.097 229.031 290.623 229.36 291.301C229.693 291.979 229.86 292.773 229.86 293.682C229.86 294.583 229.693 295.371 229.36 296.045C229.031 296.72 228.568 297.244 227.974 297.619C227.383 297.994 226.693 298.182 225.906 298.182ZM225.906 296.977C226.504 296.977 226.996 296.824 227.383 296.517C227.769 296.21 228.055 295.807 228.241 295.307C228.426 294.807 228.519 294.265 228.519 293.682C228.519 293.098 228.426 292.555 228.241 292.051C228.055 291.547 227.769 291.14 227.383 290.83C226.996 290.519 226.504 290.364 225.906 290.364C225.307 290.364 224.815 290.519 224.428 290.83C224.042 291.14 223.756 291.547 223.57 292.051C223.385 292.555 223.292 293.098 223.292 293.682C223.292 294.265 223.385 294.807 223.57 295.307C223.756 295.807 224.042 296.21 224.428 296.517C224.815 296.824 225.307 296.977 225.906 296.977ZM231.907 298V289.273H233.248V298H231.907ZM232.589 287.818C232.327 287.818 232.102 287.729 231.913 287.551C231.727 287.373 231.634 287.159 231.634 286.909C231.634 286.659 231.727 286.445 231.913 286.267C232.102 286.089 232.327 286 232.589 286C232.85 286 233.074 286.089 233.259 286.267C233.449 286.445 233.543 286.659 233.543 286.909C233.543 287.159 233.449 287.373 233.259 287.551C233.074 287.729 232.85 287.818 232.589 287.818ZM237.045 292.75V298H235.704V289.273H236.999V290.636H237.113C237.317 290.193 237.628 289.837 238.045 289.568C238.461 289.295 238.999 289.159 239.658 289.159C240.249 289.159 240.766 289.28 241.21 289.523C241.653 289.761 241.997 290.125 242.244 290.614C242.49 291.098 242.613 291.712 242.613 292.455V298H241.272V292.545C241.272 291.86 241.094 291.326 240.738 290.943C240.382 290.557 239.893 290.364 239.272 290.364C238.844 290.364 238.461 290.456 238.124 290.642C237.791 290.828 237.528 291.098 237.335 291.455C237.141 291.811 237.045 292.242 237.045 292.75ZM248.859 289.273V290.409H244.336V289.273H248.859ZM245.654 287.182H246.995V295.5C246.995 295.879 247.05 296.163 247.16 296.352C247.273 296.538 247.417 296.663 247.592 296.727C247.77 296.788 247.957 296.818 248.154 296.818C248.302 296.818 248.423 296.811 248.518 296.795C248.612 296.777 248.688 296.761 248.745 296.75L249.018 297.955C248.927 297.989 248.8 298.023 248.637 298.057C248.474 298.095 248.268 298.114 248.018 298.114C247.639 298.114 247.268 298.032 246.904 297.869C246.544 297.706 246.245 297.458 246.006 297.125C245.772 296.792 245.654 296.371 245.654 295.864V287.182ZM255.558 298V286.364H259.626C260.436 286.364 261.105 286.504 261.631 286.784C262.158 287.061 262.55 287.434 262.808 287.903C263.065 288.369 263.194 288.886 263.194 289.455C263.194 289.955 263.105 290.367 262.927 290.693C262.753 291.019 262.522 291.277 262.234 291.466C261.95 291.655 261.641 291.795 261.308 291.886V292C261.664 292.023 262.022 292.148 262.381 292.375C262.741 292.602 263.042 292.928 263.285 293.352C263.527 293.777 263.648 294.295 263.648 294.909C263.648 295.492 263.516 296.017 263.251 296.483C262.986 296.949 262.567 297.318 261.995 297.591C261.423 297.864 260.679 298 259.762 298H255.558ZM256.967 296.75H259.762C260.683 296.75 261.336 296.572 261.722 296.216C262.112 295.856 262.308 295.42 262.308 294.909C262.308 294.515 262.207 294.152 262.006 293.818C261.806 293.481 261.52 293.212 261.148 293.011C260.777 292.807 260.338 292.705 259.83 292.705H256.967V296.75ZM256.967 291.477H259.58C260.004 291.477 260.387 291.394 260.728 291.227C261.073 291.061 261.345 290.826 261.546 290.523C261.751 290.22 261.853 289.864 261.853 289.455C261.853 288.943 261.675 288.509 261.319 288.153C260.963 287.794 260.398 287.614 259.626 287.614H256.967V291.477Z"
          fill="white"/>
    <path d="M7.1669 280V268.364H11.0987C12.0116 268.364 12.7578 268.528 13.3374 268.858C13.9207 269.184 14.3525 269.625 14.6328 270.182C14.9131 270.739 15.0533 271.36 15.0533 272.045C15.0533 272.731 14.9131 273.354 14.6328 273.915C14.3563 274.475 13.9283 274.922 13.3487 275.256C12.7692 275.585 12.0268 275.75 11.1214 275.75H8.30327V274.5H11.076C11.701 274.5 12.2029 274.392 12.5817 274.176C12.9605 273.96 13.2351 273.669 13.4055 273.301C13.5798 272.93 13.6669 272.511 13.6669 272.045C13.6669 271.58 13.5798 271.163 13.4055 270.795C13.2351 270.428 12.9586 270.14 12.576 269.932C12.1934 269.72 11.6858 269.614 11.0533 269.614H8.57599V280H7.1669ZM20.593 280.182C19.8052 280.182 19.1139 279.994 18.5192 279.619C17.9283 279.244 17.4661 278.72 17.1328 278.045C16.8033 277.371 16.6385 276.583 16.6385 275.682C16.6385 274.773 16.8033 273.979 17.1328 273.301C17.4661 272.623 17.9283 272.097 18.5192 271.722C19.1139 271.347 19.8052 271.159 20.593 271.159C21.3809 271.159 22.0703 271.347 22.6612 271.722C23.2559 272.097 23.718 272.623 24.0476 273.301C24.3809 273.979 24.5476 274.773 24.5476 275.682C24.5476 276.583 24.3809 277.371 24.0476 278.045C23.718 278.72 23.2559 279.244 22.6612 279.619C22.0703 279.994 21.3809 280.182 20.593 280.182ZM20.593 278.977C21.1915 278.977 21.6839 278.824 22.0703 278.517C22.4567 278.21 22.7427 277.807 22.9283 277.307C23.1139 276.807 23.2067 276.265 23.2067 275.682C23.2067 275.098 23.1139 274.555 22.9283 274.051C22.7427 273.547 22.4567 273.14 22.0703 272.83C21.6839 272.519 21.1915 272.364 20.593 272.364C19.9946 272.364 19.5021 272.519 19.1158 272.83C18.7294 273.14 18.4434 273.547 18.2578 274.051C18.0722 274.555 17.9794 275.098 17.9794 275.682C17.9794 276.265 18.0722 276.807 18.2578 277.307C18.4434 277.807 18.7294 278.21 19.1158 278.517C19.5021 278.824 19.9946 278.977 20.593 278.977ZM26.5945 280V271.273H27.9354V280H26.5945ZM27.2763 269.818C27.0149 269.818 26.7895 269.729 26.6001 269.551C26.4145 269.373 26.3217 269.159 26.3217 268.909C26.3217 268.659 26.4145 268.445 26.6001 268.267C26.7895 268.089 27.0149 268 27.2763 268C27.5376 268 27.7611 268.089 27.9467 268.267C28.1361 268.445 28.2308 268.659 28.2308 268.909C28.2308 269.159 28.1361 269.373 27.9467 269.551C27.7611 269.729 27.5376 269.818 27.2763 269.818ZM31.7322 274.75V280H30.3913V271.273H31.6868V272.636H31.8004C32.005 272.193 32.3156 271.837 32.7322 271.568C33.1489 271.295 33.6868 271.159 34.3459 271.159C34.9368 271.159 35.4538 271.28 35.897 271.523C36.3402 271.761 36.6849 272.125 36.9311 272.614C37.1773 273.098 37.3004 273.712 37.3004 274.455V280H35.9595V274.545C35.9595 273.86 35.7815 273.326 35.4254 272.943C35.0694 272.557 34.5807 272.364 33.9595 272.364C33.5315 272.364 33.1489 272.456 32.8118 272.642C32.4785 272.828 32.2152 273.098 32.022 273.455C31.8288 273.811 31.7322 274.242 31.7322 274.75ZM43.5462 271.273V272.409H39.0234V271.273H43.5462ZM40.3416 269.182H41.6825V277.5C41.6825 277.879 41.7375 278.163 41.8473 278.352C41.9609 278.538 42.1049 278.663 42.2791 278.727C42.4571 278.788 42.6446 278.818 42.8416 278.818C42.9893 278.818 43.1106 278.811 43.2053 278.795C43.3 278.777 43.3757 278.761 43.4325 278.75L43.7053 279.955C43.6143 279.989 43.4875 280.023 43.3246 280.057C43.1617 280.095 42.9553 280.114 42.7053 280.114C42.3265 280.114 41.9553 280.032 41.5916 279.869C41.2318 279.706 40.9325 279.458 40.6939 279.125C40.459 278.792 40.3416 278.371 40.3416 277.864V269.182ZM50.245 280V268.364H54.3132C55.1238 268.364 55.7924 268.504 56.3189 268.784C56.8454 269.061 57.2375 269.434 57.495 269.903C57.7526 270.369 57.8814 270.886 57.8814 271.455C57.8814 271.955 57.7924 272.367 57.6143 272.693C57.4401 273.019 57.209 273.277 56.9212 273.466C56.6371 273.655 56.3284 273.795 55.995 273.886V274C56.3511 274.023 56.709 274.148 57.0689 274.375C57.4287 274.602 57.7299 274.928 57.9723 275.352C58.2147 275.777 58.3359 276.295 58.3359 276.909C58.3359 277.492 58.2034 278.017 57.9382 278.483C57.6731 278.949 57.2545 279.318 56.6825 279.591C56.1106 279.864 55.3662 280 54.4496 280H50.245ZM51.6541 278.75H54.4496C55.37 278.75 56.0234 278.572 56.4098 278.216C56.8 277.856 56.995 277.42 56.995 276.909C56.995 276.515 56.8946 276.152 56.6939 275.818C56.4931 275.481 56.2071 275.212 55.8359 275.011C55.4647 274.807 55.0253 274.705 54.5178 274.705H51.6541V278.75ZM51.6541 273.477H54.2678C54.692 273.477 55.0746 273.394 55.4155 273.227C55.7602 273.061 56.0329 272.826 56.2337 272.523C56.4382 272.22 56.5405 271.864 56.5405 271.455C56.5405 270.943 56.3625 270.509 56.0064 270.153C55.6503 269.794 55.0859 269.614 54.3132 269.614H51.6541V273.477Z"
          fill="white"/>
</svg>
