<svg width="421" height="551" viewBox="0 0 421 551" fill="none" xmlns="http://www.w3.org/2000/svg">
    <path d="M96 73C96 75.7614 93.7614 78 91 78C88.2386 78 86 75.7614 86 73C86 70.2386 88.2386 68 91 68C93.7614 68 96 70.2386 96 73Z"
          fill="white"/>
    <line x1="7" y1="253.5" x2="402.001" y2="253.5" stroke="white"/>
    <line x1="91.4861" y1="72.8828" x2="205.486" y2="545.883" stroke="white"/>
    <line x1="204.5" y1="546" x2="204.5" y2="73" stroke="white"/>
    <line x1="91" y1="72.5" x2="205" y2="72.5" stroke="white"/>
    <path d="M210 546C210 548.761 207.761 551 205 551C202.239 551 200 548.761 200 546C200 543.239 202.239 541 205 541C207.761 541 210 543.239 210 546Z"
          fill="white"/>
    <path d="M18.0149 233H16.6058C16.5225 232.595 16.3767 232.239 16.1683 231.932C15.9638 231.625 15.7138 231.367 15.4183 231.159C15.1267 230.947 14.8028 230.788 14.4467 230.682C14.0907 230.576 13.7195 230.523 13.3331 230.523C12.6286 230.523 11.9903 230.701 11.4183 231.057C10.8501 231.413 10.3975 231.938 10.0604 232.631C9.72704 233.324 9.56037 234.174 9.56037 235.182C9.56037 236.189 9.72704 237.04 10.0604 237.733C10.3975 238.426 10.8501 238.951 11.4183 239.307C11.9903 239.663 12.6286 239.841 13.3331 239.841C13.7195 239.841 14.0907 239.788 14.4467 239.682C14.8028 239.576 15.1267 239.419 15.4183 239.21C15.7138 238.998 15.9638 238.739 16.1683 238.432C16.3767 238.121 16.5225 237.765 16.6058 237.364H18.0149C17.9089 237.958 17.7157 238.491 17.4354 238.96C17.1551 239.43 16.8066 239.83 16.3899 240.159C15.9732 240.485 15.5054 240.733 14.9865 240.903C14.4714 241.074 13.9202 241.159 13.3331 241.159C12.3407 241.159 11.4581 240.917 10.6854 240.432C9.91264 239.947 9.30469 239.258 8.86151 238.364C8.41832 237.47 8.19673 236.409 8.19673 235.182C8.19673 233.955 8.41832 232.894 8.86151 232C9.30469 231.106 9.91264 230.417 10.6854 229.932C11.4581 229.447 12.3407 229.205 13.3331 229.205C13.9202 229.205 14.4714 229.29 14.9865 229.46C15.5054 229.631 15.9732 229.881 16.3899 230.21C16.8066 230.536 17.1551 230.934 17.4354 231.403C17.7157 231.869 17.9089 232.402 18.0149 233ZM23.6555 241.182C22.8677 241.182 22.1764 240.994 21.5817 240.619C20.9908 240.244 20.5286 239.72 20.1953 239.045C19.8658 238.371 19.701 237.583 19.701 236.682C19.701 235.773 19.8658 234.979 20.1953 234.301C20.5286 233.623 20.9908 233.097 21.5817 232.722C22.1764 232.347 22.8677 232.159 23.6555 232.159C24.4434 232.159 25.1328 232.347 25.7237 232.722C26.3184 233.097 26.7805 233.623 27.1101 234.301C27.4434 234.979 27.6101 235.773 27.6101 236.682C27.6101 237.583 27.4434 238.371 27.1101 239.045C26.7805 239.72 26.3184 240.244 25.7237 240.619C25.1328 240.994 24.4434 241.182 23.6555 241.182ZM23.6555 239.977C24.254 239.977 24.7464 239.824 25.1328 239.517C25.5192 239.21 25.8052 238.807 25.9908 238.307C26.1764 237.807 26.2692 237.265 26.2692 236.682C26.2692 236.098 26.1764 235.555 25.9908 235.051C25.8052 234.547 25.5192 234.14 25.1328 233.83C24.7464 233.519 24.254 233.364 23.6555 233.364C23.0571 233.364 22.5646 233.519 22.1783 233.83C21.7919 234.14 21.5059 234.547 21.3203 235.051C21.1347 235.555 21.0419 236.098 21.0419 236.682C21.0419 237.265 21.1347 237.807 21.3203 238.307C21.5059 238.807 21.7919 239.21 22.1783 239.517C22.5646 239.824 23.0571 239.977 23.6555 239.977ZM30.9979 235.75V241H29.657V232.273H30.9524V233.636H31.0661C31.2706 233.193 31.5812 232.837 31.9979 232.568C32.4145 232.295 32.9524 232.159 33.6115 232.159C34.2024 232.159 34.7195 232.28 35.1626 232.523C35.6058 232.761 35.9505 233.125 36.1967 233.614C36.4429 234.098 36.5661 234.712 36.5661 235.455V241H35.2251V235.545C35.2251 234.86 35.0471 234.326 34.6911 233.943C34.335 233.557 33.8464 233.364 33.2251 233.364C32.7971 233.364 32.4145 233.456 32.0774 233.642C31.7441 233.828 31.4808 234.098 31.2876 234.455C31.0945 234.811 30.9979 235.242 30.9979 235.75ZM42.8118 232.273V233.409H38.2891V232.273H42.8118ZM39.6072 230.182H40.9482V238.5C40.9482 238.879 41.0031 239.163 41.1129 239.352C41.2266 239.538 41.3705 239.663 41.5447 239.727C41.7228 239.788 41.9103 239.818 42.1072 239.818C42.255 239.818 42.3762 239.811 42.4709 239.795C42.5656 239.777 42.6413 239.761 42.6982 239.75L42.9709 240.955C42.88 240.989 42.7531 241.023 42.5902 241.057C42.4273 241.095 42.2209 241.114 41.9709 241.114C41.5921 241.114 41.2209 241.032 40.8572 240.869C40.4974 240.706 40.1982 240.458 39.9595 240.125C39.7247 239.792 39.6072 239.371 39.6072 238.864V230.182ZM47.397 241.205C46.844 241.205 46.3421 241.1 45.8913 240.892C45.4406 240.68 45.0826 240.375 44.8175 239.977C44.5523 239.576 44.4197 239.091 44.4197 238.523C44.4197 238.023 44.5182 237.617 44.7152 237.307C44.9122 236.992 45.1754 236.746 45.505 236.568C45.8345 236.39 46.1982 236.258 46.5959 236.17C46.9974 236.08 47.4008 236.008 47.8061 235.955C48.3364 235.886 48.7663 235.835 49.0959 235.801C49.4292 235.763 49.6716 235.701 49.8232 235.614C49.9785 235.527 50.0561 235.375 50.0561 235.159V235.114C50.0561 234.553 49.9027 234.117 49.5959 233.807C49.2929 233.496 48.8326 233.341 48.2152 233.341C47.575 233.341 47.0732 233.481 46.7095 233.761C46.3459 234.042 46.0902 234.341 45.9425 234.659L44.6697 234.205C44.897 233.674 45.2 233.261 45.5788 232.966C45.9614 232.667 46.3781 232.458 46.8288 232.341C47.2834 232.22 47.7304 232.159 48.1697 232.159C48.45 232.159 48.772 232.193 49.1357 232.261C49.5031 232.326 49.8572 232.46 50.1982 232.665C50.5429 232.869 50.8288 233.178 51.0561 233.591C51.2834 234.004 51.397 234.557 51.397 235.25V241H50.0561V239.818H49.9879C49.897 240.008 49.7455 240.21 49.5334 240.426C49.3213 240.642 49.0391 240.826 48.6868 240.977C48.3345 241.129 47.9046 241.205 47.397 241.205ZM47.6016 240C48.1319 240 48.5788 239.896 48.9425 239.688C49.3099 239.479 49.5864 239.21 49.772 238.881C49.9614 238.551 50.0561 238.205 50.0561 237.841V236.614C49.9993 236.682 49.8743 236.744 49.6811 236.801C49.4917 236.854 49.272 236.902 49.022 236.943C48.7758 236.981 48.5353 237.015 48.3004 237.045C48.0694 237.072 47.8819 237.095 47.7379 237.114C47.3894 237.159 47.0637 237.233 46.7607 237.335C46.4614 237.434 46.219 237.583 46.0334 237.784C45.8516 237.981 45.7607 238.25 45.7607 238.591C45.7607 239.057 45.933 239.409 46.2777 239.648C46.6262 239.883 47.0675 240 47.6016 240ZM57.3899 241.182C56.5717 241.182 55.8672 240.989 55.2763 240.602C54.6854 240.216 54.2308 239.684 53.9126 239.006C53.5945 238.328 53.4354 237.553 53.4354 236.682C53.4354 235.795 53.5982 235.013 53.924 234.335C54.2536 233.653 54.7119 233.121 55.299 232.739C55.8899 232.352 56.5793 232.159 57.3672 232.159C57.9808 232.159 58.5339 232.273 59.0263 232.5C59.5187 232.727 59.9221 233.045 60.2365 233.455C60.5509 233.864 60.746 234.341 60.8217 234.886H59.4808C59.3786 234.489 59.1513 234.136 58.799 233.83C58.4505 233.519 57.9808 233.364 57.3899 233.364C56.8672 233.364 56.4089 233.5 56.0149 233.773C55.6248 234.042 55.3198 234.422 55.1001 234.915C54.8842 235.403 54.7763 235.977 54.7763 236.636C54.7763 237.311 54.8823 237.898 55.0945 238.398C55.3104 238.898 55.6134 239.286 56.0036 239.562C56.3975 239.839 56.8596 239.977 57.3899 239.977C57.7384 239.977 58.0547 239.917 58.3388 239.795C58.6229 239.674 58.8634 239.5 59.0604 239.273C59.2573 239.045 59.3975 238.773 59.4808 238.455H60.8217C60.746 238.97 60.5585 239.434 60.2592 239.847C59.9638 240.256 59.5717 240.581 59.0831 240.824C58.5982 241.062 58.0339 241.182 57.3899 241.182ZM66.5774 232.273V233.409H62.0547V232.273H66.5774ZM63.3729 230.182H64.7138V238.5C64.7138 238.879 64.7687 239.163 64.8786 239.352C64.9922 239.538 65.1361 239.663 65.3104 239.727C65.4884 239.788 65.6759 239.818 65.8729 239.818C66.0206 239.818 66.1418 239.811 66.2365 239.795C66.3312 239.777 66.407 239.761 66.4638 239.75L66.7365 240.955C66.6456 240.989 66.5187 241.023 66.3558 241.057C66.1929 241.095 65.9865 241.114 65.7365 241.114C65.3577 241.114 64.9865 241.032 64.6229 240.869C64.263 240.706 63.9638 240.458 63.7251 240.125C63.4903 239.792 63.3729 239.371 63.3729 238.864V230.182ZM73.2763 241V229.364H77.2081C78.121 229.364 78.8672 229.528 79.4467 229.858C80.0301 230.184 80.4619 230.625 80.7422 231.182C81.0225 231.739 81.1626 232.36 81.1626 233.045C81.1626 233.731 81.0225 234.354 80.7422 234.915C80.4657 235.475 80.0376 235.922 79.4581 236.256C78.8786 236.585 78.1361 236.75 77.2308 236.75H74.4126V235.5H77.1854C77.8104 235.5 78.3123 235.392 78.6911 235.176C79.0698 234.96 79.3445 234.669 79.5149 234.301C79.6892 233.93 79.7763 233.511 79.7763 233.045C79.7763 232.58 79.6892 232.163 79.5149 231.795C79.3445 231.428 79.0679 231.14 78.6854 230.932C78.3028 230.72 77.7952 230.614 77.1626 230.614H74.6854V241H73.2763ZM86.7024 241.182C85.9145 241.182 85.2232 240.994 84.6286 240.619C84.0376 240.244 83.5755 239.72 83.2422 239.045C82.9126 238.371 82.7479 237.583 82.7479 236.682C82.7479 235.773 82.9126 234.979 83.2422 234.301C83.5755 233.623 84.0376 233.097 84.6286 232.722C85.2232 232.347 85.9145 232.159 86.7024 232.159C87.4903 232.159 88.1797 232.347 88.7706 232.722C89.3653 233.097 89.8274 233.623 90.157 234.301C90.4903 234.979 90.657 235.773 90.657 236.682C90.657 237.583 90.4903 238.371 90.157 239.045C89.8274 239.72 89.3653 240.244 88.7706 240.619C88.1797 240.994 87.4903 241.182 86.7024 241.182ZM86.7024 239.977C87.3009 239.977 87.7933 239.824 88.1797 239.517C88.5661 239.21 88.852 238.807 89.0376 238.307C89.2232 237.807 89.3161 237.265 89.3161 236.682C89.3161 236.098 89.2232 235.555 89.0376 235.051C88.852 234.547 88.5661 234.14 88.1797 233.83C87.7933 233.519 87.3009 233.364 86.7024 233.364C86.1039 233.364 85.6115 233.519 85.2251 233.83C84.8388 234.14 84.5528 234.547 84.3672 235.051C84.1816 235.555 84.0888 236.098 84.0888 236.682C84.0888 237.265 84.1816 237.807 84.3672 238.307C84.5528 238.807 84.8388 239.21 85.2251 239.517C85.6115 239.824 86.1039 239.977 86.7024 239.977ZM92.7038 241V232.273H94.0447V241H92.7038ZM93.3857 230.818C93.1243 230.818 92.8989 230.729 92.7095 230.551C92.5239 230.373 92.4311 230.159 92.4311 229.909C92.4311 229.659 92.5239 229.445 92.7095 229.267C92.8989 229.089 93.1243 229 93.3857 229C93.647 229 93.8705 229.089 94.0561 229.267C94.2455 229.445 94.3402 229.659 94.3402 229.909C94.3402 230.159 94.2455 230.373 94.0561 230.551C93.8705 230.729 93.647 230.818 93.3857 230.818ZM97.8416 235.75V241H96.5007V232.273H97.7962V233.636H97.9098C98.1143 233.193 98.425 232.837 98.8416 232.568C99.2583 232.295 99.7962 232.159 100.455 232.159C101.046 232.159 101.563 232.28 102.006 232.523C102.45 232.761 102.794 233.125 103.04 233.614C103.287 234.098 103.41 234.712 103.41 235.455V241H102.069V235.545C102.069 234.86 101.891 234.326 101.535 233.943C101.179 233.557 100.69 233.364 100.069 233.364C99.6409 233.364 99.2583 233.456 98.9212 233.642C98.5878 233.828 98.3246 234.098 98.1314 234.455C97.9382 234.811 97.8416 235.242 97.8416 235.75ZM109.656 232.273V233.409H105.133V232.273H109.656ZM106.451 230.182H107.792V238.5C107.792 238.879 107.847 239.163 107.957 239.352C108.07 239.538 108.214 239.663 108.388 239.727C108.567 239.788 108.754 239.818 108.951 239.818C109.099 239.818 109.22 239.811 109.315 239.795C109.409 239.777 109.485 239.761 109.542 239.75L109.815 240.955C109.724 240.989 109.597 241.023 109.434 241.057C109.271 241.095 109.065 241.114 108.815 241.114C108.436 241.114 108.065 241.032 107.701 240.869C107.341 240.706 107.042 240.458 106.803 240.125C106.568 239.792 106.451 239.371 106.451 238.864V230.182ZM116.832 241H115.354L119.627 229.364H121.082L125.354 241H123.877L120.4 231.205H120.309L116.832 241ZM117.377 236.455H123.332V237.705H117.377V236.455Z"
          fill="white"/>
    <path d="M335.866 238.273C335.798 237.697 335.522 237.25 335.037 236.932C334.552 236.614 333.957 236.455 333.253 236.455C332.738 236.455 332.287 236.538 331.901 236.705C331.518 236.871 331.219 237.1 331.003 237.392C330.791 237.684 330.685 238.015 330.685 238.386C330.685 238.697 330.759 238.964 330.906 239.188C331.058 239.407 331.251 239.591 331.486 239.739C331.721 239.883 331.967 240.002 332.224 240.097C332.482 240.187 332.719 240.261 332.935 240.318L334.116 240.636C334.42 240.716 334.757 240.826 335.128 240.966C335.503 241.106 335.861 241.297 336.202 241.54C336.546 241.778 336.83 242.085 337.054 242.46C337.277 242.835 337.389 243.295 337.389 243.841C337.389 244.47 337.224 245.038 336.895 245.545C336.569 246.053 336.092 246.456 335.463 246.756C334.838 247.055 334.079 247.205 333.185 247.205C332.351 247.205 331.63 247.07 331.02 246.801C330.414 246.532 329.937 246.157 329.588 245.676C329.243 245.195 329.048 244.636 329.003 244H330.457C330.495 244.439 330.643 244.803 330.901 245.091C331.162 245.375 331.491 245.587 331.889 245.727C332.291 245.864 332.723 245.932 333.185 245.932C333.723 245.932 334.205 245.845 334.634 245.67C335.062 245.492 335.401 245.246 335.651 244.932C335.901 244.614 336.026 244.242 336.026 243.818C336.026 243.432 335.918 243.117 335.702 242.875C335.486 242.633 335.202 242.436 334.849 242.284C334.497 242.133 334.116 242 333.707 241.886L332.276 241.477C331.366 241.216 330.647 240.843 330.116 240.358C329.586 239.873 329.321 239.239 329.321 238.455C329.321 237.803 329.497 237.235 329.849 236.75C330.205 236.261 330.683 235.883 331.281 235.614C331.884 235.341 332.556 235.205 333.298 235.205C334.048 235.205 334.715 235.339 335.298 235.608C335.882 235.873 336.344 236.237 336.685 236.699C337.029 237.161 337.211 237.686 337.23 238.273H335.866ZM343.07 247.182C342.251 247.182 341.547 246.989 340.956 246.602C340.365 246.216 339.911 245.684 339.592 245.006C339.274 244.328 339.115 243.553 339.115 242.682C339.115 241.795 339.278 241.013 339.604 240.335C339.933 239.653 340.392 239.121 340.979 238.739C341.57 238.352 342.259 238.159 343.047 238.159C343.661 238.159 344.214 238.273 344.706 238.5C345.198 238.727 345.602 239.045 345.916 239.455C346.231 239.864 346.426 240.341 346.501 240.886H345.161C345.058 240.489 344.831 240.136 344.479 239.83C344.13 239.519 343.661 239.364 343.07 239.364C342.547 239.364 342.089 239.5 341.695 239.773C341.304 240.042 341 240.422 340.78 240.915C340.564 241.403 340.456 241.977 340.456 242.636C340.456 243.311 340.562 243.898 340.774 244.398C340.99 244.898 341.293 245.286 341.683 245.562C342.077 245.839 342.539 245.977 343.07 245.977C343.418 245.977 343.734 245.917 344.018 245.795C344.303 245.674 344.543 245.5 344.74 245.273C344.937 245.045 345.077 244.773 345.161 244.455H346.501C346.426 244.97 346.238 245.434 345.939 245.847C345.643 246.256 345.251 246.581 344.763 246.824C344.278 247.062 343.714 247.182 343.07 247.182ZM348.462 247V238.273H349.757V239.591H349.848C350.007 239.159 350.295 238.809 350.712 238.54C351.128 238.271 351.598 238.136 352.121 238.136C352.219 238.136 352.342 238.138 352.49 238.142C352.638 238.146 352.75 238.152 352.825 238.159V239.523C352.78 239.511 352.676 239.494 352.513 239.472C352.354 239.445 352.185 239.432 352.007 239.432C351.583 239.432 351.204 239.521 350.871 239.699C350.541 239.873 350.28 240.116 350.087 240.426C349.897 240.733 349.803 241.083 349.803 241.477V247H348.462ZM357.808 247.182C356.967 247.182 356.242 246.996 355.632 246.625C355.026 246.25 354.558 245.727 354.229 245.057C353.903 244.383 353.74 243.598 353.74 242.705C353.74 241.811 353.903 241.023 354.229 240.341C354.558 239.655 355.017 239.121 355.604 238.739C356.195 238.352 356.884 238.159 357.672 238.159C358.126 238.159 358.575 238.235 359.018 238.386C359.462 238.538 359.865 238.784 360.229 239.125C360.592 239.462 360.882 239.909 361.098 240.466C361.314 241.023 361.422 241.708 361.422 242.523V243.091H354.695V241.932H360.058C360.058 241.439 359.96 241 359.763 240.614C359.57 240.227 359.293 239.922 358.933 239.699C358.577 239.475 358.157 239.364 357.672 239.364C357.138 239.364 356.676 239.496 356.286 239.761C355.899 240.023 355.602 240.364 355.393 240.784C355.185 241.205 355.081 241.655 355.081 242.136V242.909C355.081 243.568 355.195 244.127 355.422 244.585C355.653 245.04 355.973 245.386 356.382 245.625C356.791 245.86 357.267 245.977 357.808 245.977C358.161 245.977 358.479 245.928 358.763 245.83C359.051 245.727 359.299 245.576 359.507 245.375C359.715 245.17 359.876 244.917 359.99 244.614L361.286 244.977C361.149 245.417 360.92 245.803 360.598 246.136C360.276 246.466 359.878 246.723 359.405 246.909C358.931 247.091 358.399 247.182 357.808 247.182ZM367.121 247.182C366.28 247.182 365.554 246.996 364.945 246.625C364.339 246.25 363.871 245.727 363.541 245.057C363.215 244.383 363.053 243.598 363.053 242.705C363.053 241.811 363.215 241.023 363.541 240.341C363.871 239.655 364.329 239.121 364.916 238.739C365.507 238.352 366.196 238.159 366.984 238.159C367.439 238.159 367.888 238.235 368.331 238.386C368.774 238.538 369.178 238.784 369.541 239.125C369.905 239.462 370.195 239.909 370.411 240.466C370.626 241.023 370.734 241.708 370.734 242.523V243.091H364.007V241.932H369.371C369.371 241.439 369.272 241 369.075 240.614C368.882 240.227 368.606 239.922 368.246 239.699C367.89 239.475 367.469 239.364 366.984 239.364C366.45 239.364 365.988 239.496 365.598 239.761C365.212 240.023 364.914 240.364 364.706 240.784C364.498 241.205 364.393 241.655 364.393 242.136V242.909C364.393 243.568 364.507 244.127 364.734 244.585C364.965 245.04 365.286 245.386 365.695 245.625C366.104 245.86 366.579 245.977 367.121 245.977C367.473 245.977 367.791 245.928 368.075 245.83C368.363 245.727 368.611 245.576 368.82 245.375C369.028 245.17 369.189 244.917 369.303 244.614L370.598 244.977C370.462 245.417 370.232 245.803 369.911 246.136C369.589 246.466 369.191 246.723 368.717 246.909C368.244 247.091 367.712 247.182 367.121 247.182ZM374.115 241.75V247H372.774V238.273H374.07V239.636H374.183C374.388 239.193 374.698 238.837 375.115 238.568C375.532 238.295 376.07 238.159 376.729 238.159C377.32 238.159 377.837 238.28 378.28 238.523C378.723 238.761 379.068 239.125 379.314 239.614C379.56 240.098 379.683 240.712 379.683 241.455V247H378.342V241.545C378.342 240.86 378.164 240.326 377.808 239.943C377.452 239.557 376.964 239.364 376.342 239.364C375.914 239.364 375.532 239.456 375.195 239.642C374.861 239.828 374.598 240.098 374.405 240.455C374.212 240.811 374.115 241.242 374.115 241.75Z"
          fill="white"/>
    <path d="M140 254C140 256.761 137.761 259 135 259C132.239 259 130 256.761 130 254C130 251.239 132.239 249 135 249C137.761 249 140 251.239 140 254Z"
          fill="white"/>
    <path d="M27.9638 92V80.3636H31.8956C32.8085 80.3636 33.5547 80.5284 34.1342 80.858C34.7176 81.1837 35.1494 81.625 35.4297 82.1818C35.71 82.7386 35.8501 83.3598 35.8501 84.0455C35.8501 84.7311 35.71 85.3542 35.4297 85.9148C35.1532 86.4754 34.7251 86.9223 34.1456 87.2557C33.5661 87.5852 32.8236 87.75 31.9183 87.75H29.1001V86.5H31.8729C32.4979 86.5 32.9998 86.392 33.3786 86.1761C33.7573 85.9602 34.032 85.6686 34.2024 85.3011C34.3767 84.9299 34.4638 84.5114 34.4638 84.0455C34.4638 83.5795 34.3767 83.1629 34.2024 82.7955C34.032 82.428 33.7554 82.1402 33.3729 81.9318C32.9903 81.7197 32.4827 81.6136 31.8501 81.6136H29.3729V92H27.9638ZM41.3899 92.1818C40.602 92.1818 39.9107 91.9943 39.3161 91.6193C38.7251 91.2443 38.263 90.7197 37.9297 90.0455C37.6001 89.3712 37.4354 88.5833 37.4354 87.6818C37.4354 86.7727 37.6001 85.9792 37.9297 85.3011C38.263 84.6231 38.7251 84.0966 39.3161 83.7216C39.9107 83.3466 40.602 83.1591 41.3899 83.1591C42.1778 83.1591 42.8672 83.3466 43.4581 83.7216C44.0528 84.0966 44.5149 84.6231 44.8445 85.3011C45.1778 85.9792 45.3445 86.7727 45.3445 87.6818C45.3445 88.5833 45.1778 89.3712 44.8445 90.0455C44.5149 90.7197 44.0528 91.2443 43.4581 91.6193C42.8672 91.9943 42.1778 92.1818 41.3899 92.1818ZM41.3899 90.9773C41.9884 90.9773 42.4808 90.8239 42.8672 90.517C43.2536 90.2102 43.5395 89.8068 43.7251 89.3068C43.9107 88.8068 44.0036 88.2652 44.0036 87.6818C44.0036 87.0985 43.9107 86.5549 43.7251 86.0511C43.5395 85.5473 43.2536 85.1402 42.8672 84.8295C42.4808 84.5189 41.9884 84.3636 41.3899 84.3636C40.7914 84.3636 40.299 84.5189 39.9126 84.8295C39.5263 85.1402 39.2403 85.5473 39.0547 86.0511C38.8691 86.5549 38.7763 87.0985 38.7763 87.6818C38.7763 88.2652 38.8691 88.8068 39.0547 89.3068C39.2403 89.8068 39.5263 90.2102 39.9126 90.517C40.299 90.8239 40.7914 90.9773 41.3899 90.9773ZM47.3913 92V83.2727H48.7322V92H47.3913ZM48.0732 81.8182C47.8118 81.8182 47.5864 81.7292 47.397 81.5511C47.2114 81.3731 47.1186 81.1591 47.1186 80.9091C47.1186 80.6591 47.2114 80.4451 47.397 80.267C47.5864 80.089 47.8118 80 48.0732 80C48.3345 80 48.558 80.089 48.7436 80.267C48.933 80.4451 49.0277 80.6591 49.0277 80.9091C49.0277 81.1591 48.933 81.3731 48.7436 81.5511C48.558 81.7292 48.3345 81.8182 48.0732 81.8182ZM52.5291 86.75V92H51.1882V83.2727H52.4837V84.6364H52.5973C52.8018 84.1932 53.1125 83.8371 53.5291 83.5682C53.9458 83.2955 54.4837 83.1591 55.1428 83.1591C55.7337 83.1591 56.2507 83.2803 56.6939 83.5227C57.1371 83.7614 57.4818 84.125 57.728 84.6136C57.9742 85.0985 58.0973 85.7121 58.0973 86.4545V92H56.7564V86.5455C56.7564 85.8598 56.5784 85.3258 56.2223 84.9432C55.8662 84.5568 55.3776 84.3636 54.7564 84.3636C54.3284 84.3636 53.9458 84.4564 53.6087 84.642C53.2753 84.8277 53.0121 85.0985 52.8189 85.4545C52.6257 85.8106 52.5291 86.2424 52.5291 86.75ZM64.343 83.2727V84.4091H59.8203V83.2727H64.343ZM61.1385 81.1818H62.4794V89.5C62.4794 89.8788 62.5343 90.1629 62.6442 90.3523C62.7578 90.5379 62.9018 90.6629 63.076 90.7273C63.254 90.7879 63.4415 90.8182 63.6385 90.8182C63.7862 90.8182 63.9074 90.8106 64.0021 90.7955C64.0968 90.7765 64.1726 90.7614 64.2294 90.75L64.5021 91.9545C64.4112 91.9886 64.2843 92.0227 64.1214 92.0568C63.9586 92.0947 63.7521 92.1136 63.5021 92.1136C63.1233 92.1136 62.7521 92.0322 62.3885 91.8693C62.0286 91.7064 61.7294 91.4583 61.4908 91.125C61.2559 90.7917 61.1385 90.3712 61.1385 89.8636V81.1818ZM71.5192 92H70.0419L74.3146 80.3636H75.7692L80.0419 92H78.5646L75.0874 82.2045H74.9964L71.5192 92ZM72.0646 87.4545H78.0192V88.7045H72.0646V87.4545Z"
          fill="white"/>
    <path d="M224 546C228.971 546 233 522.471 233 493.444V396.887C233 384.032 233 377.604 233.249 371.555C233.469 366.194 233.833 361.068 234.326 356.364C234.883 351.061 235.661 346.515 237.218 337.425L242 309.5L237.218 281.575C235.661 272.485 234.883 267.939 234.326 262.636C233.833 257.933 233.469 252.807 233.249 247.444C233 241.396 233 234.968 233 222.114V125.556C233 96.5299 228.971 73 224 73"
          stroke="white" stroke-linecap="round" stroke-linejoin="round"/>
    <path d="M266 546C270.971 546 275 531.475 275 513.556V453.947C275 446.011 275 442.043 275.249 438.309C275.469 434.999 275.833 431.834 276.326 428.931C276.883 425.657 277.661 422.851 279.218 417.239L284 400L279.218 382.761C277.661 377.149 276.883 374.343 276.326 371.069C275.833 368.166 275.469 365.001 275.249 361.691C275 357.957 275 353.989 275 346.053V286.444C275 268.526 270.971 254 266 254"
          stroke="white" stroke-linecap="round" stroke-linejoin="round"/>
    <path d="M205 55C205 50.0293 199.329 46 192.333 46H169.061C165.963 46 164.414 46 162.956 45.7512C161.664 45.5307 160.429 45.1671 159.295 44.6739C158.017 44.1172 156.921 43.3387 154.73 41.7822L148 37L141.27 41.7822C139.079 43.3387 137.983 44.1172 136.705 44.6739C135.571 45.1671 134.336 45.5307 133.044 45.7512C131.586 46 130.037 46 126.939 46H103.667C96.6711 46 91 50.0293 91 55"
          stroke="white" stroke-linecap="round" stroke-linejoin="round"/>
    <path d="M121.555 20.2727L123.646 23.8409L125.737 20.2727H127.283L124.464 24.6364L127.283 29H125.737L123.646 25.6136L121.555 29H120.01L122.783 24.6364L120.01 20.2727H121.555ZM137.241 29.1818C136.454 29.1818 135.762 28.9943 135.168 28.6193C134.577 28.2443 134.115 27.7197 133.781 27.0455C133.452 26.3712 133.287 25.5833 133.287 24.6818C133.287 23.7727 133.452 22.9792 133.781 22.3011C134.115 21.6231 134.577 21.0966 135.168 20.7216C135.762 20.3466 136.454 20.1591 137.241 20.1591C138.029 20.1591 138.719 20.3466 139.31 20.7216C139.904 21.0966 140.366 21.6231 140.696 22.3011C141.029 22.9792 141.196 23.7727 141.196 24.6818C141.196 25.5833 141.029 26.3712 140.696 27.0455C140.366 27.7197 139.904 28.2443 139.31 28.6193C138.719 28.9943 138.029 29.1818 137.241 29.1818ZM137.241 27.9773C137.84 27.9773 138.332 27.8239 138.719 27.517C139.105 27.2102 139.391 26.8068 139.577 26.3068C139.762 25.8068 139.855 25.2652 139.855 24.6818C139.855 24.0985 139.762 23.5549 139.577 23.0511C139.391 22.5473 139.105 22.1402 138.719 21.8295C138.332 21.5189 137.84 21.3636 137.241 21.3636C136.643 21.3636 136.151 21.5189 135.764 21.8295C135.378 22.1402 135.092 22.5473 134.906 23.0511C134.721 23.5549 134.628 24.0985 134.628 24.6818C134.628 25.2652 134.721 25.8068 134.906 26.3068C135.092 26.8068 135.378 27.2102 135.764 27.517C136.151 27.8239 136.643 27.9773 137.241 27.9773ZM147.129 20.2727V21.4091H142.425V20.2727H147.129ZM143.834 29V19.0682C143.834 18.5682 143.951 18.1515 144.186 17.8182C144.421 17.4848 144.726 17.2348 145.101 17.0682C145.476 16.9015 145.872 16.8182 146.288 16.8182C146.618 16.8182 146.887 16.8447 147.095 16.8977C147.304 16.9508 147.459 17 147.561 17.0455L147.175 18.2045C147.107 18.1818 147.012 18.1534 146.891 18.1193C146.773 18.0852 146.618 18.0682 146.425 18.0682C145.982 18.0682 145.661 18.1799 145.464 18.4034C145.271 18.6269 145.175 18.9545 145.175 19.3864V29H143.834ZM152.895 20.2727V21.4091H148.19V20.2727H152.895ZM149.599 29V19.0682C149.599 18.5682 149.717 18.1515 149.952 17.8182C150.187 17.4848 150.491 17.2348 150.866 17.0682C151.241 16.9015 151.637 16.8182 152.054 16.8182C152.384 16.8182 152.652 16.8447 152.861 16.8977C153.069 16.9508 153.224 17 153.327 17.0455L152.94 18.2045C152.872 18.1818 152.777 18.1534 152.656 18.1193C152.539 18.0852 152.384 18.0682 152.19 18.0682C151.747 18.0682 151.427 18.1799 151.23 18.4034C151.037 18.6269 150.94 18.9545 150.94 19.3864V29H149.599ZM160.597 22.2273L159.392 22.5682C159.316 22.3674 159.205 22.1723 159.057 21.983C158.913 21.7898 158.716 21.6307 158.466 21.5057C158.216 21.3807 157.896 21.3182 157.506 21.3182C156.972 21.3182 156.527 21.4413 156.17 21.6875C155.818 21.9299 155.642 22.2386 155.642 22.6136C155.642 22.947 155.763 23.2102 156.006 23.4034C156.248 23.5966 156.627 23.7576 157.142 23.8864L158.438 24.2045C159.218 24.3939 159.799 24.6837 160.182 25.0739C160.564 25.4602 160.756 25.9583 160.756 26.5682C160.756 27.0682 160.612 27.5152 160.324 27.9091C160.04 28.303 159.642 28.6136 159.131 28.8409C158.619 29.0682 158.025 29.1818 157.347 29.1818C156.456 29.1818 155.72 28.9886 155.136 28.6023C154.553 28.2159 154.184 27.6515 154.028 26.9091L155.301 26.5909C155.422 27.0606 155.652 27.4129 155.989 27.6477C156.33 27.8826 156.775 28 157.324 28C157.949 28 158.445 27.8674 158.812 27.6023C159.184 27.3333 159.369 27.0114 159.369 26.6364C159.369 26.3333 159.263 26.0795 159.051 25.875C158.839 25.6667 158.513 25.5114 158.074 25.4091L156.619 25.0682C155.82 24.8788 155.233 24.5852 154.858 24.1875C154.487 23.786 154.301 23.2841 154.301 22.6818C154.301 22.1894 154.439 21.7538 154.716 21.375C154.996 20.9962 155.377 20.6989 155.858 20.483C156.343 20.267 156.892 20.1591 157.506 20.1591C158.369 20.1591 159.047 20.3485 159.54 20.7273C160.036 21.1061 160.388 21.6061 160.597 22.2273ZM166.433 29.1818C165.592 29.1818 164.867 28.9962 164.257 28.625C163.651 28.25 163.183 27.7273 162.854 27.0568C162.528 26.3826 162.365 25.5985 162.365 24.7045C162.365 23.8106 162.528 23.0227 162.854 22.3409C163.183 21.6553 163.642 21.1212 164.229 20.7386C164.82 20.3523 165.509 20.1591 166.297 20.1591C166.751 20.1591 167.2 20.2348 167.643 20.3864C168.087 20.5379 168.49 20.7841 168.854 21.125C169.217 21.4621 169.507 21.9091 169.723 22.4659C169.939 23.0227 170.047 23.7083 170.047 24.5227V25.0909H163.32V23.9318H168.683C168.683 23.4394 168.585 23 168.388 22.6136C168.195 22.2273 167.918 21.9223 167.558 21.6989C167.202 21.4754 166.782 21.3636 166.297 21.3636C165.763 21.3636 165.301 21.4962 164.911 21.7614C164.524 22.0227 164.227 22.3636 164.018 22.7841C163.81 23.2045 163.706 23.6553 163.706 24.1364V24.9091C163.706 25.5682 163.82 26.1269 164.047 26.5852C164.278 27.0398 164.598 27.3864 165.007 27.625C165.416 27.8598 165.892 27.9773 166.433 27.9773C166.786 27.9773 167.104 27.928 167.388 27.8295C167.676 27.7273 167.924 27.5758 168.132 27.375C168.34 27.1705 168.501 26.9167 168.615 26.6136L169.911 26.9773C169.774 27.4167 169.545 27.803 169.223 28.1364C168.901 28.4659 168.503 28.7235 168.03 28.9091C167.556 29.0909 167.024 29.1818 166.433 29.1818ZM175.882 20.2727V21.4091H171.359V20.2727H175.882ZM172.678 18.1818H174.018V26.5C174.018 26.8788 174.073 27.1629 174.183 27.3523C174.297 27.5379 174.441 27.6629 174.615 27.7273C174.793 27.7879 174.981 27.8182 175.178 27.8182C175.325 27.8182 175.446 27.8106 175.541 27.7955C175.636 27.7765 175.712 27.7614 175.768 27.75L176.041 28.9545C175.95 28.9886 175.823 29.0227 175.661 29.0568C175.498 29.0947 175.291 29.1136 175.041 29.1136C174.662 29.1136 174.291 29.0322 173.928 28.8693C173.568 28.7064 173.268 28.4583 173.03 28.125C172.795 27.7917 172.678 27.3712 172.678 26.8636V18.1818Z"
          fill="white"/>
    <path d="M292 362.134H293.023L299.386 367.088H299.477V362.293H300.727V368.815H299.659L293.341 363.997H293.25V368.974H292V362.134ZM291.818 378.835C291.818 378.108 292.002 377.466 292.369 376.909C292.741 376.352 293.263 375.917 293.937 375.602C294.616 375.288 295.417 375.131 296.341 375.131C297.258 375.131 298.053 375.288 298.727 375.602C299.402 375.917 299.922 376.354 300.29 376.915C300.657 377.475 300.841 378.123 300.841 378.858C300.841 379.426 300.746 379.875 300.557 380.205C300.371 380.538 300.159 380.792 299.92 380.966C299.686 381.144 299.492 381.282 299.341 381.381V381.494H303.636V382.835H292V381.54H293.341V381.381C293.182 381.282 292.981 381.142 292.739 380.96C292.5 380.778 292.286 380.519 292.097 380.182C291.911 379.845 291.818 379.396 291.818 378.835ZM293.023 379.017C293.023 379.555 293.163 380.009 293.443 380.381C293.727 380.752 294.119 381.034 294.619 381.227C295.123 381.42 295.705 381.517 296.364 381.517C297.015 381.517 297.585 381.422 298.074 381.233C298.566 381.044 298.949 380.763 299.222 380.392C299.498 380.021 299.636 379.563 299.636 379.017C299.636 378.449 299.491 377.975 299.199 377.597C298.911 377.222 298.519 376.939 298.023 376.75C297.53 376.564 296.977 376.472 296.364 376.472C295.742 376.472 295.178 376.566 294.67 376.756C294.167 376.949 293.765 377.233 293.466 377.608C293.17 377.987 293.023 378.456 293.023 379.017ZM292 385.477H300.727V386.818H292V385.477ZM302.182 386.159C302.182 385.898 302.271 385.672 302.449 385.483C302.627 385.297 302.841 385.205 303.091 385.205C303.341 385.205 303.555 385.297 303.733 385.483C303.911 385.672 304 385.898 304 386.159C304 386.42 303.911 386.644 303.733 386.83C303.555 387.019 303.341 387.114 303.091 387.114C302.841 387.114 302.627 387.019 302.449 386.83C302.271 386.644 302.182 386.42 302.182 386.159ZM298.773 395.456L298.432 394.251C298.633 394.176 298.828 394.064 299.017 393.916C299.21 393.772 299.369 393.575 299.494 393.325C299.619 393.075 299.682 392.755 299.682 392.365C299.682 391.831 299.559 391.386 299.312 391.03C299.07 390.678 298.761 390.501 298.386 390.501C298.053 390.501 297.79 390.623 297.597 390.865C297.403 391.107 297.242 391.486 297.114 392.001L296.795 393.297C296.606 394.077 296.316 394.659 295.926 395.041C295.54 395.424 295.042 395.615 294.432 395.615C293.932 395.615 293.485 395.471 293.091 395.183C292.697 394.899 292.386 394.501 292.159 393.99C291.932 393.479 291.818 392.884 291.818 392.206C291.818 391.316 292.011 390.579 292.398 389.996C292.784 389.412 293.348 389.043 294.091 388.888L294.409 390.161C293.939 390.282 293.587 390.511 293.352 390.848C293.117 391.189 293 391.634 293 392.183C293 392.808 293.133 393.304 293.398 393.672C293.667 394.043 293.989 394.229 294.364 394.229C294.667 394.229 294.92 394.123 295.125 393.911C295.333 393.698 295.489 393.373 295.591 392.933L295.932 391.479C296.121 390.679 296.415 390.092 296.812 389.717C297.214 389.346 297.716 389.161 298.318 389.161C298.811 389.161 299.246 389.299 299.625 389.575C300.004 389.856 300.301 390.236 300.517 390.717C300.733 391.202 300.841 391.751 300.841 392.365C300.841 393.229 300.652 393.907 300.273 394.399C299.894 394.895 299.394 395.248 298.773 395.456ZM300.727 401.429H299.591V396.906H300.727V401.429ZM302.818 398.224V399.565H294.5C294.121 399.565 293.837 399.62 293.648 399.73C293.462 399.844 293.337 399.988 293.273 400.162C293.212 400.34 293.182 400.527 293.182 400.724C293.182 400.872 293.189 400.993 293.205 401.088C293.223 401.183 293.239 401.259 293.25 401.315L292.045 401.588C292.011 401.497 291.977 401.37 291.943 401.207C291.905 401.045 291.886 400.838 291.886 400.588C291.886 400.209 291.968 399.838 292.131 399.474C292.294 399.115 292.542 398.815 292.875 398.577C293.208 398.342 293.629 398.224 294.136 398.224H302.818ZM291.795 406.014C291.795 405.461 291.9 404.959 292.108 404.509C292.32 404.058 292.625 403.7 293.023 403.435C293.424 403.17 293.909 403.037 294.477 403.037C294.977 403.037 295.383 403.135 295.693 403.332C296.008 403.529 296.254 403.793 296.432 404.122C296.61 404.452 296.742 404.815 296.83 405.213C296.92 405.615 296.992 406.018 297.045 406.423C297.114 406.954 297.165 407.384 297.199 407.713C297.237 408.046 297.299 408.289 297.386 408.44C297.473 408.596 297.625 408.673 297.841 408.673H297.886C298.447 408.673 298.883 408.52 299.193 408.213C299.504 407.91 299.659 407.45 299.659 406.832C299.659 406.192 299.519 405.69 299.239 405.327C298.958 404.963 298.659 404.707 298.341 404.56L298.795 403.287C299.326 403.514 299.739 403.817 300.034 404.196C300.333 404.579 300.542 404.995 300.659 405.446C300.78 405.901 300.841 406.348 300.841 406.787C300.841 407.067 300.807 407.389 300.739 407.753C300.674 408.12 300.54 408.474 300.335 408.815C300.131 409.16 299.822 409.446 299.409 409.673C298.996 409.901 298.443 410.014 297.75 410.014H292V408.673H293.182V408.605C292.992 408.514 292.79 408.363 292.574 408.151C292.358 407.938 292.174 407.656 292.023 407.304C291.871 406.952 291.795 406.522 291.795 406.014ZM293 406.219C293 406.749 293.104 407.196 293.312 407.56C293.521 407.927 293.79 408.204 294.119 408.389C294.449 408.579 294.795 408.673 295.159 408.673H296.386C296.318 408.616 296.256 408.491 296.199 408.298C296.146 408.109 296.098 407.889 296.057 407.639C296.019 407.393 295.985 407.152 295.955 406.918C295.928 406.687 295.905 406.499 295.886 406.355C295.841 406.007 295.767 405.681 295.665 405.378C295.566 405.079 295.417 404.836 295.216 404.651C295.019 404.469 294.75 404.378 294.409 404.378C293.943 404.378 293.591 404.55 293.352 404.895C293.117 405.243 293 405.685 293 406.219ZM297.25 413.803H292V412.462H300.727V413.757H299.364V413.871C299.807 414.075 300.163 414.386 300.432 414.803C300.705 415.219 300.841 415.757 300.841 416.416C300.841 417.007 300.72 417.524 300.477 417.967C300.239 418.411 299.875 418.755 299.386 419.001C298.902 419.248 298.288 419.371 297.545 419.371H292V418.03H297.455C298.14 418.03 298.674 417.852 299.057 417.496C299.443 417.14 299.636 416.651 299.636 416.03C299.636 415.602 299.544 415.219 299.358 414.882C299.172 414.549 298.902 414.286 298.545 414.092C298.189 413.899 297.758 413.803 297.25 413.803ZM291.818 425.366C291.818 424.548 292.011 423.844 292.398 423.253C292.784 422.662 293.316 422.207 293.994 421.889C294.672 421.571 295.447 421.412 296.318 421.412C297.205 421.412 297.987 421.575 298.665 421.901C299.347 422.23 299.879 422.688 300.261 423.276C300.648 423.866 300.841 424.556 300.841 425.344C300.841 425.957 300.727 426.51 300.5 427.003C300.273 427.495 299.955 427.899 299.545 428.213C299.136 428.527 298.659 428.723 298.114 428.798V427.457C298.511 427.355 298.864 427.128 299.17 426.776C299.481 426.427 299.636 425.957 299.636 425.366C299.636 424.844 299.5 424.385 299.227 423.991C298.958 423.601 298.578 423.296 298.085 423.077C297.597 422.861 297.023 422.753 296.364 422.753C295.689 422.753 295.102 422.859 294.602 423.071C294.102 423.287 293.714 423.59 293.437 423.98C293.161 424.374 293.023 424.836 293.023 425.366C293.023 425.715 293.083 426.031 293.205 426.315C293.326 426.599 293.5 426.84 293.727 427.037C293.955 427.234 294.227 427.374 294.545 427.457V428.798C294.03 428.723 293.566 428.535 293.153 428.236C292.744 427.94 292.419 427.548 292.176 427.06C291.937 426.575 291.818 426.01 291.818 425.366ZM291.818 434.418C291.818 433.577 292.004 432.851 292.375 432.241C292.75 431.635 293.273 431.168 293.943 430.838C294.617 430.512 295.402 430.349 296.295 430.349C297.189 430.349 297.977 430.512 298.659 430.838C299.345 431.168 299.879 431.626 300.261 432.213C300.648 432.804 300.841 433.493 300.841 434.281C300.841 434.736 300.765 435.185 300.614 435.628C300.462 436.071 300.216 436.474 299.875 436.838C299.538 437.202 299.091 437.491 298.534 437.707C297.977 437.923 297.292 438.031 296.477 438.031H295.909V431.304H297.068V436.668C297.561 436.668 298 436.569 298.386 436.372C298.773 436.179 299.078 435.902 299.301 435.543C299.525 435.187 299.636 434.766 299.636 434.281C299.636 433.747 299.504 433.285 299.239 432.895C298.977 432.509 298.636 432.211 298.216 432.003C297.795 431.795 297.345 431.69 296.864 431.69H296.091C295.432 431.69 294.873 431.804 294.415 432.031C293.96 432.262 293.614 432.582 293.375 432.991C293.14 433.401 293.023 433.876 293.023 434.418C293.023 434.77 293.072 435.088 293.17 435.372C293.273 435.66 293.424 435.908 293.625 436.116C293.83 436.325 294.083 436.486 294.386 436.599L294.023 437.895C293.583 437.759 293.197 437.529 292.864 437.207C292.534 436.885 292.277 436.488 292.091 436.014C291.909 435.541 291.818 435.009 291.818 434.418Z"
          fill="white"/>
    <path d="M258.727 275.676H257.591V270.972H258.727V275.676ZM250 272.381H259.932C260.432 272.381 260.848 272.498 261.182 272.733C261.515 272.968 261.765 273.273 261.932 273.648C262.098 274.023 262.182 274.419 262.182 274.835C262.182 275.165 262.155 275.434 262.102 275.642C262.049 275.85 262 276.006 261.955 276.108L260.795 275.722C260.818 275.653 260.847 275.559 260.881 275.438C260.915 275.32 260.932 275.165 260.932 274.972C260.932 274.528 260.82 274.208 260.597 274.011C260.373 273.818 260.045 273.722 259.614 273.722H250V272.381ZM249.818 280.741C249.818 279.954 250.006 279.262 250.381 278.668C250.756 278.077 251.28 277.615 251.955 277.281C252.629 276.952 253.417 276.787 254.318 276.787C255.227 276.787 256.021 276.952 256.699 277.281C257.377 277.615 257.903 278.077 258.278 278.668C258.653 279.262 258.841 279.954 258.841 280.741C258.841 281.529 258.653 282.219 258.278 282.81C257.903 283.404 257.377 283.866 256.699 284.196C256.021 284.529 255.227 284.696 254.318 284.696C253.417 284.696 252.629 284.529 251.955 284.196C251.28 283.866 250.756 283.404 250.381 282.81C250.006 282.219 249.818 281.529 249.818 280.741ZM251.023 280.741C251.023 281.34 251.176 281.832 251.483 282.219C251.79 282.605 252.193 282.891 252.693 283.077C253.193 283.262 253.735 283.355 254.318 283.355C254.902 283.355 255.445 283.262 255.949 283.077C256.453 282.891 256.86 282.605 257.17 282.219C257.481 281.832 257.636 281.34 257.636 280.741C257.636 280.143 257.481 279.651 257.17 279.264C256.86 278.878 256.453 278.592 255.949 278.406C255.445 278.221 254.902 278.128 254.318 278.128C253.735 278.128 253.193 278.221 252.693 278.406C252.193 278.592 251.79 278.878 251.483 279.264C251.176 279.651 251.023 280.143 251.023 280.741ZM249.818 290.288C249.818 289.47 250.011 288.766 250.398 288.175C250.784 287.584 251.316 287.129 251.994 286.811C252.672 286.493 253.447 286.334 254.318 286.334C255.205 286.334 255.987 286.497 256.665 286.822C257.347 287.152 257.879 287.61 258.261 288.197C258.648 288.788 258.841 289.478 258.841 290.266C258.841 290.879 258.727 291.432 258.5 291.925C258.273 292.417 257.955 292.821 257.545 293.135C257.136 293.449 256.659 293.644 256.114 293.72V292.379C256.511 292.277 256.864 292.05 257.17 291.697C257.481 291.349 257.636 290.879 257.636 290.288C257.636 289.766 257.5 289.307 257.227 288.913C256.958 288.523 256.578 288.218 256.085 287.999C255.597 287.783 255.023 287.675 254.364 287.675C253.689 287.675 253.102 287.781 252.602 287.993C252.102 288.209 251.714 288.512 251.437 288.902C251.161 289.296 251.023 289.758 251.023 290.288C251.023 290.637 251.083 290.953 251.205 291.237C251.326 291.521 251.5 291.762 251.727 291.959C251.955 292.156 252.227 292.296 252.545 292.379V293.72C252.03 293.644 251.566 293.457 251.153 293.158C250.744 292.862 250.419 292.47 250.176 291.982C249.937 291.497 249.818 290.932 249.818 290.288ZM249.795 298.249C249.795 297.696 249.9 297.194 250.108 296.743C250.32 296.292 250.625 295.934 251.023 295.669C251.424 295.404 251.909 295.271 252.477 295.271C252.977 295.271 253.383 295.37 253.693 295.567C254.008 295.764 254.254 296.027 254.432 296.357C254.61 296.686 254.742 297.05 254.83 297.447C254.92 297.849 254.992 298.252 255.045 298.658C255.114 299.188 255.165 299.618 255.199 299.947C255.237 300.281 255.299 300.523 255.386 300.675C255.473 300.83 255.625 300.908 255.841 300.908H255.886C256.447 300.908 256.883 300.754 257.193 300.447C257.504 300.144 257.659 299.684 257.659 299.067C257.659 298.427 257.519 297.925 257.239 297.561C256.958 297.197 256.659 296.942 256.341 296.794L256.795 295.521C257.326 295.749 257.739 296.052 258.034 296.43C258.333 296.813 258.542 297.23 258.659 297.68C258.78 298.135 258.841 298.582 258.841 299.021C258.841 299.302 258.807 299.624 258.739 299.987C258.674 300.355 258.54 300.709 258.335 301.05C258.131 301.394 257.822 301.68 257.409 301.908C256.996 302.135 256.443 302.249 255.75 302.249H250V300.908H251.182V300.839C250.992 300.749 250.79 300.597 250.574 300.385C250.358 300.173 250.174 299.891 250.023 299.538C249.871 299.186 249.795 298.756 249.795 298.249ZM251 298.453C251 298.983 251.104 299.43 251.312 299.794C251.521 300.161 251.79 300.438 252.119 300.624C252.449 300.813 252.795 300.908 253.159 300.908H254.386C254.318 300.851 254.256 300.726 254.199 300.533C254.146 300.343 254.098 300.124 254.057 299.874C254.019 299.627 253.985 299.387 253.955 299.152C253.928 298.921 253.905 298.733 253.886 298.589C253.841 298.241 253.767 297.915 253.665 297.612C253.566 297.313 253.417 297.071 253.216 296.885C253.019 296.703 252.75 296.612 252.409 296.612C251.943 296.612 251.591 296.785 251.352 297.129C251.117 297.478 251 297.919 251 298.453ZM261.636 306.037H250V304.696H261.636V306.037ZM261.636 314.334H250V312.993H261.636V314.334ZM249.818 320.449C249.818 319.608 250.004 318.883 250.375 318.273C250.75 317.667 251.273 317.199 251.943 316.869C252.617 316.544 253.402 316.381 254.295 316.381C255.189 316.381 255.977 316.544 256.659 316.869C257.345 317.199 257.879 317.657 258.261 318.244C258.648 318.835 258.841 319.525 258.841 320.313C258.841 320.767 258.765 321.216 258.614 321.659C258.462 322.102 258.216 322.506 257.875 322.869C257.538 323.233 257.091 323.523 256.534 323.739C255.977 323.955 255.292 324.063 254.477 324.063H253.909V317.335H255.068V322.699C255.561 322.699 256 322.6 256.386 322.403C256.773 322.21 257.078 321.934 257.301 321.574C257.525 321.218 257.636 320.797 257.636 320.313C257.636 319.778 257.504 319.316 257.239 318.926C256.977 318.54 256.636 318.242 256.216 318.034C255.795 317.826 255.345 317.722 254.864 317.722H254.091C253.432 317.722 252.873 317.835 252.415 318.063C251.96 318.294 251.614 318.614 251.375 319.023C251.14 319.432 251.023 319.907 251.023 320.449C251.023 320.801 251.072 321.119 251.17 321.403C251.273 321.691 251.424 321.939 251.625 322.148C251.83 322.356 252.083 322.517 252.386 322.631L252.023 323.926C251.583 323.79 251.197 323.561 250.864 323.239C250.534 322.917 250.277 322.519 250.091 322.045C249.909 321.572 249.818 321.04 249.818 320.449ZM255.25 327.443H250V326.102H258.727V327.398H257.364V327.511C257.807 327.716 258.163 328.027 258.432 328.443C258.705 328.86 258.841 329.398 258.841 330.057C258.841 330.648 258.72 331.165 258.477 331.608C258.239 332.051 257.875 332.396 257.386 332.642C256.902 332.888 256.288 333.011 255.545 333.011H250V331.67H255.455C256.14 331.67 256.674 331.492 257.057 331.136C257.443 330.78 257.636 330.292 257.636 329.67C257.636 329.242 257.544 328.86 257.358 328.523C257.172 328.189 256.902 327.926 256.545 327.733C256.189 327.54 255.758 327.443 255.25 327.443ZM246.545 338.984C246.545 338.337 246.629 337.78 246.795 337.314C246.958 336.848 247.174 336.46 247.443 336.149C247.708 335.842 247.992 335.598 248.295 335.416L249.045 336.484C248.886 336.606 248.705 336.759 248.5 336.945C248.292 337.13 248.112 337.384 247.96 337.706C247.805 338.032 247.727 338.458 247.727 338.984C247.727 339.689 247.898 340.27 248.239 340.729C248.58 341.187 249.114 341.416 249.841 341.416H251.614V341.303C251.455 341.204 251.258 341.064 251.023 340.882C250.792 340.704 250.585 340.447 250.403 340.109C250.225 339.776 250.136 339.325 250.136 338.757C250.136 338.053 250.303 337.42 250.636 336.859C250.97 336.303 251.455 335.861 252.091 335.536C252.727 335.214 253.5 335.053 254.409 335.053C255.303 335.053 256.081 335.21 256.744 335.524C257.411 335.839 257.926 336.276 258.29 336.837C258.657 337.397 258.841 338.045 258.841 338.78C258.841 339.348 258.746 339.799 258.557 340.132C258.371 340.469 258.159 340.727 257.92 340.905C257.686 341.087 257.492 341.227 257.341 341.325V341.462H258.727V342.757H249.75C249 342.757 248.39 342.587 247.92 342.246C247.447 341.909 247.1 341.454 246.881 340.882C246.657 340.314 246.545 339.681 246.545 338.984ZM251.341 338.939C251.341 339.477 251.464 339.931 251.71 340.303C251.956 340.674 252.311 340.956 252.773 341.149C253.235 341.342 253.788 341.439 254.432 341.439C255.061 341.439 255.616 341.344 256.097 341.155C256.578 340.965 256.955 340.685 257.227 340.314C257.5 339.943 257.636 339.484 257.636 338.939C257.636 338.371 257.492 337.897 257.205 337.518C256.917 337.143 256.53 336.861 256.045 336.672C255.561 336.486 255.023 336.393 254.432 336.393C253.826 336.393 253.29 336.488 252.824 336.678C252.362 336.871 251.998 337.155 251.733 337.53C251.472 337.909 251.341 338.378 251.341 338.939ZM258.727 349.007H257.591V344.484H258.727V349.007ZM260.818 345.803V347.143H252.5C252.121 347.143 251.837 347.198 251.648 347.308C251.462 347.422 251.337 347.566 251.273 347.74C251.212 347.918 251.182 348.106 251.182 348.303C251.182 348.45 251.189 348.572 251.205 348.666C251.223 348.761 251.239 348.837 251.25 348.893L250.045 349.166C250.011 349.075 249.977 348.948 249.943 348.786C249.905 348.623 249.886 348.416 249.886 348.166C249.886 347.787 249.968 347.416 250.131 347.053C250.294 346.693 250.542 346.393 250.875 346.155C251.208 345.92 251.629 345.803 252.136 345.803H260.818ZM255.25 352.553H250V351.212H261.636V352.553H257.364V352.666C257.814 352.871 258.172 353.178 258.437 353.587C258.706 354 258.841 354.549 258.841 355.234C258.841 355.829 258.722 356.35 258.483 356.797C258.248 357.244 257.886 357.59 257.398 357.837C256.913 358.087 256.295 358.212 255.545 358.212H250V356.871H255.455C256.148 356.871 256.684 356.691 257.062 356.331C257.445 355.975 257.636 355.481 257.636 354.848C257.636 354.409 257.544 354.015 257.358 353.666C257.172 353.322 256.902 353.049 256.545 352.848C256.189 352.651 255.758 352.553 255.25 352.553Z"
          fill="white"/>
</svg>
