<svg width="421" height="549" viewBox="0 0 421 549" fill="none" xmlns="http://www.w3.org/2000/svg">
<path d="M97 66C97 68.7614 94.7614 71 92 71C89.2386 71 87 68.7614 87 66C87 63.2386 89.2386 61 92 61C94.7614 61 97 63.2386 97 66Z" fill="#493986"/>
<line x1="7" y1="247.5" x2="402.001" y2="247.5" stroke="#493986"/>
<line x1="91.4861" y1="66.8828" x2="205.486" y2="539.883" stroke="#493986"/>
<line x1="204.5" y1="540" x2="204.5" y2="67" stroke="#493986"/>
<line x1="91" y1="66.5" x2="205" y2="66.5" stroke="#493986"/>
<path d="M210 540C210 542.761 207.761 545 205 545C202.239 545 200 542.761 200 540C200 537.239 202.239 535 205 535C207.761 535 210 537.239 210 540Z" fill="#493986"/>
<path d="M24.0756 227H22.8426C22.7697 226.645 22.6421 226.334 22.4598 226.065C22.2808 225.797 22.0621 225.571 21.8035 225.389C21.5483 225.204 21.2649 225.064 20.9534 224.972C20.6418 224.879 20.317 224.832 19.979 224.832C19.3625 224.832 18.804 224.988 18.3035 225.3C17.8064 225.611 17.4103 226.07 17.1153 226.677C16.8237 227.283 16.6778 228.027 16.6778 228.909C16.6778 229.791 16.8237 230.535 17.1153 231.141C17.4103 231.748 17.8064 232.207 18.3035 232.518C18.804 232.83 19.3625 232.986 19.979 232.986C20.317 232.986 20.6418 232.939 20.9534 232.847C21.2649 232.754 21.5483 232.616 21.8035 232.434C22.0621 232.248 22.2808 232.021 22.4598 231.753C22.6421 231.481 22.7697 231.17 22.8426 230.818H24.0756C23.9827 231.339 23.8137 231.804 23.5684 232.215C23.3232 232.626 23.0183 232.976 22.6537 233.264C22.2891 233.549 21.8798 233.766 21.4257 233.915C20.9749 234.065 20.4927 234.139 19.979 234.139C19.1106 234.139 18.3383 233.927 17.6622 233.503C16.9861 233.079 16.4541 232.475 16.0663 231.693C15.6785 230.911 15.4846 229.983 15.4846 228.909C15.4846 227.835 15.6785 226.907 16.0663 226.125C16.4541 225.343 16.9861 224.74 17.6622 224.315C18.3383 223.891 19.1106 223.679 19.979 223.679C20.4927 223.679 20.9749 223.754 21.4257 223.903C21.8798 224.052 22.2891 224.271 22.6537 224.559C23.0183 224.844 23.3232 225.192 23.5684 225.603C23.8137 226.011 23.9827 226.476 24.0756 227ZM29.0111 234.159C28.3217 234.159 27.7168 233.995 27.1965 233.667C26.6794 233.339 26.2751 232.88 25.9834 232.29C25.695 231.7 25.5509 231.01 25.5509 230.222C25.5509 229.426 25.695 228.732 25.9834 228.138C26.2751 227.545 26.6794 227.085 27.1965 226.756C27.7168 226.428 28.3217 226.264 29.0111 226.264C29.7005 226.264 30.3037 226.428 30.8208 226.756C31.3411 227.085 31.7455 227.545 32.0338 228.138C32.3255 228.732 32.4713 229.426 32.4713 230.222C32.4713 231.01 32.3255 231.7 32.0338 232.29C31.7455 232.88 31.3411 233.339 30.8208 233.667C30.3037 233.995 29.7005 234.159 29.0111 234.159ZM29.0111 233.105C29.5348 233.105 29.9656 232.971 30.3037 232.702C30.6418 232.434 30.892 232.081 31.0544 231.643C31.2168 231.206 31.298 230.732 31.298 230.222C31.298 229.711 31.2168 229.236 31.0544 228.795C30.892 228.354 30.6418 227.998 30.3037 227.726C29.9656 227.454 29.5348 227.318 29.0111 227.318C28.4874 227.318 28.0566 227.454 27.7185 227.726C27.3804 227.998 27.1302 228.354 26.9678 228.795C26.8054 229.236 26.7242 229.711 26.7242 230.222C26.7242 230.732 26.8054 231.206 26.9678 231.643C27.1302 232.081 27.3804 232.434 27.7185 232.702C28.0566 232.971 28.4874 233.105 29.0111 233.105ZM35.4356 229.406V234H34.2623V226.364H35.3959V227.557H35.4953C35.6743 227.169 35.9461 226.857 36.3106 226.622C36.6752 226.384 37.1459 226.264 37.7226 226.264C38.2396 226.264 38.692 226.37 39.0798 226.582C39.4676 226.791 39.7692 227.109 39.9846 227.537C40.2001 227.961 40.3078 228.498 40.3078 229.148V234H39.1345V229.227C39.1345 228.627 38.9787 228.16 38.6672 227.825C38.3556 227.487 37.9281 227.318 37.3845 227.318C37.01 227.318 36.6752 227.399 36.3802 227.562C36.0886 227.724 35.8582 227.961 35.6892 228.273C35.5202 228.584 35.4356 228.962 35.4356 229.406ZM45.7728 226.364V227.358H41.8154V226.364H45.7728ZM42.9688 224.534H44.1421V231.812C44.1421 232.144 44.1902 232.393 44.2863 232.558C44.3857 232.721 44.5117 232.83 44.6642 232.886C44.8199 232.939 44.984 232.966 45.1563 232.966C45.2856 232.966 45.3917 232.959 45.4745 232.946C45.5574 232.929 45.6237 232.916 45.6734 232.906L45.912 233.96C45.8325 233.99 45.7214 234.02 45.5789 234.05C45.4364 234.083 45.2558 234.099 45.037 234.099C44.7056 234.099 44.3808 234.028 44.0626 233.886C43.7477 233.743 43.4859 233.526 43.2771 233.234C43.0716 232.943 42.9688 232.575 42.9688 232.131V224.534ZM49.7849 234.179C49.301 234.179 48.8618 234.088 48.4674 233.906C48.073 233.72 47.7598 233.453 47.5278 233.105C47.2958 232.754 47.1798 232.33 47.1798 231.832C47.1798 231.395 47.266 231.04 47.4383 230.768C47.6106 230.493 47.841 230.278 48.1294 230.122C48.4177 229.966 48.7359 229.85 49.0839 229.774C49.4352 229.695 49.7882 229.632 50.1428 229.585C50.6069 229.526 50.983 229.481 51.2714 229.451C51.5631 229.418 51.7752 229.363 51.9078 229.287C52.0436 229.211 52.1116 229.078 52.1116 228.889V228.849C52.1116 228.359 51.9774 227.978 51.7089 227.706C51.4437 227.434 51.041 227.298 50.5008 227.298C49.9407 227.298 49.5015 227.421 49.1833 227.666C48.8651 227.911 48.6414 228.173 48.5122 228.452L47.3985 228.054C47.5974 227.59 47.8625 227.229 48.194 226.97C48.5287 226.708 48.8933 226.526 49.2877 226.423C49.6855 226.317 50.0766 226.264 50.461 226.264C50.7063 226.264 50.988 226.294 51.3062 226.354C51.6277 226.41 51.9376 226.528 52.2359 226.707C52.5375 226.886 52.7877 227.156 52.9866 227.517C53.1855 227.878 53.2849 228.362 53.2849 228.969V234H52.1116V232.966H52.0519C51.9724 233.132 51.8398 233.309 51.6542 233.498C51.4686 233.687 51.2217 233.848 50.9134 233.98C50.6052 234.113 50.229 234.179 49.7849 234.179ZM49.9639 233.125C50.4279 233.125 50.819 233.034 51.1372 232.852C51.4587 232.669 51.7006 232.434 51.863 232.146C52.0287 231.857 52.1116 231.554 52.1116 231.236V230.162C52.0619 230.222 51.9525 230.276 51.7835 230.326C51.6177 230.372 51.4255 230.414 51.2068 230.45C50.9913 230.483 50.7809 230.513 50.5754 230.54C50.3732 230.563 50.2091 230.583 50.0832 230.599C49.7783 230.639 49.4932 230.704 49.2281 230.793C48.9662 230.879 48.7541 231.01 48.5917 231.186C48.4326 231.358 48.3531 231.594 48.3531 231.892C48.3531 232.3 48.5039 232.608 48.8055 232.817C49.1104 233.022 49.4965 233.125 49.9639 233.125ZM58.5287 234.159C57.8128 234.159 57.1963 233.99 56.6792 233.652C56.1622 233.314 55.7645 232.848 55.4861 232.255C55.2077 231.662 55.0684 230.984 55.0684 230.222C55.0684 229.446 55.211 228.762 55.496 228.168C55.7844 227.572 56.1854 227.106 56.6991 226.771C57.2162 226.433 57.8194 226.264 58.5088 226.264C59.0457 226.264 59.5296 226.364 59.9605 226.562C60.3914 226.761 60.7443 227.04 61.0194 227.398C61.2945 227.756 61.4652 228.173 61.5315 228.651H60.3582C60.2687 228.303 60.0699 227.994 59.7616 227.726C59.4567 227.454 59.0457 227.318 58.5287 227.318C58.0713 227.318 57.6702 227.437 57.3256 227.676C56.9842 227.911 56.7174 228.245 56.5251 228.675C56.3362 229.103 56.2417 229.605 56.2417 230.182C56.2417 230.772 56.3345 231.286 56.5202 231.723C56.7091 232.161 56.9742 232.5 57.3156 232.742C57.6603 232.984 58.0647 233.105 58.5287 233.105C58.8336 233.105 59.1104 233.052 59.3589 232.946C59.6075 232.84 59.818 232.688 59.9903 232.489C60.1627 232.29 60.2853 232.051 60.3582 231.773H61.5315C61.4652 232.223 61.3012 232.629 61.0393 232.991C60.7808 233.349 60.4378 233.634 60.0102 233.846C59.586 234.055 59.0921 234.159 58.5287 234.159ZM66.5677 226.364V227.358H62.6104V226.364H66.5677ZM63.7638 224.534H64.9371V231.812C64.9371 232.144 64.9851 232.393 65.0812 232.558C65.1807 232.721 65.3066 232.83 65.4591 232.886C65.6148 232.939 65.7789 232.966 65.9513 232.966C66.0805 232.966 66.1866 232.959 66.2694 232.946C66.3523 232.929 66.4186 232.916 66.4683 232.906L66.7069 233.96C66.6274 233.99 66.5164 234.02 66.3738 234.05C66.2313 234.083 66.0507 234.099 65.8319 234.099C65.5005 234.099 65.1757 234.028 64.8575 233.886C64.5426 233.743 64.2808 233.526 64.072 233.234C63.8665 232.943 63.7638 232.575 63.7638 232.131V224.534ZM72.4292 234V223.818H75.8696C76.6684 223.818 77.3213 223.962 77.8284 224.251C78.3388 224.536 78.7166 224.922 78.9619 225.409C79.2072 225.896 79.3298 226.44 79.3298 227.04C79.3298 227.64 79.2072 228.185 78.9619 228.675C78.72 229.166 78.3454 229.557 77.8383 229.849C77.3312 230.137 76.6816 230.281 75.8895 230.281H73.4236V229.188H75.8497C76.3966 229.188 76.8357 229.093 77.1672 228.904C77.4986 228.715 77.7389 228.46 77.8881 228.138C78.0405 227.814 78.1167 227.447 78.1167 227.04C78.1167 226.632 78.0405 226.268 77.8881 225.946C77.7389 225.625 77.497 225.373 77.1622 225.19C76.8274 225.005 76.3833 224.912 75.8298 224.912H73.6622V234H72.4292ZM84.1771 234.159C83.4877 234.159 82.8828 233.995 82.3625 233.667C81.8454 233.339 81.4411 232.88 81.1494 232.29C80.8611 231.7 80.7169 231.01 80.7169 230.222C80.7169 229.426 80.8611 228.732 81.1494 228.138C81.4411 227.545 81.8454 227.085 82.3625 226.756C82.8828 226.428 83.4877 226.264 84.1771 226.264C84.8665 226.264 85.4697 226.428 85.9868 226.756C86.5071 227.085 86.9115 227.545 87.1998 228.138C87.4915 228.732 87.6373 229.426 87.6373 230.222C87.6373 231.01 87.4915 231.7 87.1998 232.29C86.9115 232.88 86.5071 233.339 85.9868 233.667C85.4697 233.995 84.8665 234.159 84.1771 234.159ZM84.1771 233.105C84.7008 233.105 85.1317 232.971 85.4697 232.702C85.8078 232.434 86.058 232.081 86.2204 231.643C86.3828 231.206 86.464 230.732 86.464 230.222C86.464 229.711 86.3828 229.236 86.2204 228.795C86.058 228.354 85.8078 227.998 85.4697 227.726C85.1317 227.454 84.7008 227.318 84.1771 227.318C83.6534 227.318 83.2226 227.454 82.8845 227.726C82.5464 227.998 82.2962 228.354 82.1338 228.795C81.9714 229.236 81.8902 229.711 81.8902 230.222C81.8902 230.732 81.9714 231.206 82.1338 231.643C82.2962 232.081 82.5464 232.434 82.8845 232.702C83.2226 232.971 83.6534 233.105 84.1771 233.105ZM89.4284 234V226.364H90.6017V234H89.4284ZM90.0249 225.091C89.7963 225.091 89.599 225.013 89.4333 224.857C89.2709 224.701 89.1897 224.514 89.1897 224.295C89.1897 224.077 89.2709 223.889 89.4333 223.734C89.599 223.578 89.7963 223.5 90.0249 223.5C90.2536 223.5 90.4492 223.578 90.6116 223.734C90.7773 223.889 90.8602 224.077 90.8602 224.295C90.8602 224.514 90.7773 224.701 90.6116 224.857C90.4492 225.013 90.2536 225.091 90.0249 225.091ZM93.9239 229.406V234H92.7506V226.364H93.8841V227.557H93.9836C94.1626 227.169 94.4343 226.857 94.7989 226.622C95.1635 226.384 95.6341 226.264 96.2108 226.264C96.7279 226.264 97.1803 226.37 97.5681 226.582C97.9559 226.791 98.2575 227.109 98.4729 227.537C98.6884 227.961 98.7961 228.498 98.7961 229.148V234H97.6228V229.227C97.6228 228.627 97.467 228.16 97.1555 227.825C96.8439 227.487 96.4163 227.318 95.8728 227.318C95.4983 227.318 95.1635 227.399 94.8685 227.562C94.5769 227.724 94.3465 227.961 94.1775 228.273C94.0084 228.584 93.9239 228.962 93.9239 229.406ZM104.261 226.364V227.358H100.304V226.364H104.261ZM101.457 224.534H102.63V231.812C102.63 232.144 102.678 232.393 102.775 232.558C102.874 232.721 103 232.83 103.152 232.886C103.308 232.939 103.472 232.966 103.645 232.966C103.774 232.966 103.88 232.959 103.963 232.946C104.046 232.929 104.112 232.916 104.162 232.906L104.4 233.96C104.321 233.99 104.21 234.02 104.067 234.05C103.925 234.083 103.744 234.099 103.525 234.099C103.194 234.099 102.869 234.028 102.551 233.886C102.236 233.743 101.974 233.526 101.765 233.234C101.56 232.943 101.457 232.575 101.457 232.131V224.534ZM110.54 234H109.248L112.986 223.818H114.259L117.998 234H116.705L113.662 225.429H113.583L110.54 234ZM111.017 230.023H116.228V231.116H111.017V230.023Z" fill="#493986"/>
<path d="M338.196 232.364C338.136 231.86 337.894 231.469 337.47 231.19C337.046 230.912 336.525 230.773 335.909 230.773C335.458 230.773 335.064 230.846 334.725 230.991C334.391 231.137 334.129 231.338 333.94 231.593C333.754 231.848 333.662 232.138 333.662 232.463C333.662 232.735 333.726 232.969 333.855 233.164C333.988 233.356 334.157 233.517 334.363 233.646C334.568 233.772 334.783 233.877 335.009 233.96C335.234 234.039 335.441 234.104 335.63 234.153L336.664 234.432C336.93 234.501 337.225 234.598 337.549 234.72C337.877 234.843 338.191 235.01 338.489 235.222C338.791 235.431 339.039 235.7 339.235 236.028C339.43 236.356 339.528 236.759 339.528 237.236C339.528 237.786 339.384 238.283 339.096 238.727C338.81 239.171 338.393 239.524 337.843 239.786C337.296 240.048 336.631 240.179 335.849 240.179C335.12 240.179 334.489 240.061 333.955 239.826C333.425 239.591 333.007 239.263 332.702 238.842C332.4 238.421 332.23 237.932 332.19 237.375H333.463C333.496 237.759 333.625 238.078 333.85 238.33C334.079 238.578 334.368 238.764 334.716 238.886C335.067 239.006 335.445 239.065 335.849 239.065C336.32 239.065 336.742 238.989 337.117 238.837C337.491 238.681 337.788 238.465 338.007 238.19C338.225 237.912 338.335 237.587 338.335 237.216C338.335 236.878 338.24 236.603 338.051 236.391C337.863 236.179 337.614 236.006 337.306 235.874C336.998 235.741 336.664 235.625 336.306 235.526L335.054 235.168C334.258 234.939 333.628 234.612 333.164 234.188C332.7 233.764 332.468 233.209 332.468 232.523C332.468 231.953 332.623 231.455 332.931 231.031C333.242 230.604 333.66 230.272 334.184 230.037C334.711 229.798 335.299 229.679 335.949 229.679C336.605 229.679 337.188 229.797 337.699 230.032C338.209 230.264 338.613 230.582 338.912 230.987C339.213 231.391 339.372 231.85 339.389 232.364H338.196ZM344.498 240.159C343.782 240.159 343.166 239.99 342.649 239.652C342.132 239.314 341.734 238.848 341.456 238.255C341.177 237.662 341.038 236.984 341.038 236.222C341.038 235.446 341.181 234.762 341.466 234.168C341.754 233.572 342.155 233.106 342.669 232.771C343.186 232.433 343.789 232.264 344.479 232.264C345.015 232.264 345.499 232.364 345.93 232.562C346.361 232.761 346.714 233.04 346.989 233.398C347.264 233.756 347.435 234.173 347.501 234.651H346.328C346.238 234.303 346.04 233.994 345.731 233.726C345.426 233.454 345.015 233.318 344.498 233.318C344.041 233.318 343.64 233.437 343.295 233.676C342.954 233.911 342.687 234.245 342.495 234.675C342.306 235.103 342.211 235.605 342.211 236.182C342.211 236.772 342.304 237.286 342.49 237.723C342.679 238.161 342.944 238.5 343.285 238.742C343.63 238.984 344.034 239.105 344.498 239.105C344.803 239.105 345.08 239.052 345.329 238.946C345.577 238.84 345.788 238.688 345.96 238.489C346.132 238.29 346.255 238.051 346.328 237.773H347.501C347.435 238.223 347.271 238.629 347.009 238.991C346.751 239.349 346.407 239.634 345.98 239.846C345.556 240.055 345.062 240.159 344.498 240.159ZM349.216 240V232.364H350.35V233.517H350.43C350.569 233.139 350.821 232.833 351.185 232.597C351.55 232.362 351.961 232.244 352.418 232.244C352.504 232.244 352.612 232.246 352.741 232.249C352.871 232.253 352.968 232.258 353.035 232.264V233.457C352.995 233.447 352.904 233.433 352.761 233.413C352.622 233.389 352.474 233.378 352.319 233.378C351.948 233.378 351.616 233.456 351.324 233.612C351.036 233.764 350.807 233.976 350.638 234.248C350.473 234.516 350.39 234.823 350.39 235.168V240H349.216ZM357.395 240.159C356.659 240.159 356.024 239.997 355.491 239.672C354.96 239.344 354.551 238.886 354.263 238.3C353.978 237.71 353.835 237.024 353.835 236.241C353.835 235.459 353.978 234.77 354.263 234.173C354.551 233.573 354.952 233.106 355.466 232.771C355.983 232.433 356.586 232.264 357.275 232.264C357.673 232.264 358.066 232.33 358.454 232.463C358.841 232.596 359.194 232.811 359.513 233.109C359.831 233.404 360.084 233.795 360.273 234.283C360.462 234.77 360.557 235.37 360.557 236.082V236.58H354.67V235.565H359.363C359.363 235.134 359.277 234.75 359.105 234.412C358.936 234.074 358.694 233.807 358.379 233.612C358.068 233.416 357.7 233.318 357.275 233.318C356.808 233.318 356.404 233.434 356.062 233.666C355.724 233.895 355.464 234.193 355.282 234.561C355.099 234.929 355.008 235.323 355.008 235.744V236.42C355.008 236.997 355.108 237.486 355.307 237.887C355.509 238.285 355.789 238.588 356.147 238.797C356.505 239.002 356.921 239.105 357.395 239.105C357.703 239.105 357.981 239.062 358.23 238.976C358.482 238.886 358.699 238.754 358.881 238.578C359.064 238.399 359.204 238.177 359.304 237.912L360.437 238.23C360.318 238.615 360.117 238.953 359.836 239.244C359.554 239.533 359.206 239.758 358.792 239.92C358.377 240.08 357.912 240.159 357.395 240.159ZM365.543 240.159C364.807 240.159 364.173 239.997 363.639 239.672C363.109 239.344 362.699 238.886 362.411 238.3C362.126 237.71 361.983 237.024 361.983 236.241C361.983 235.459 362.126 234.77 362.411 234.173C362.699 233.573 363.1 233.106 363.614 232.771C364.131 232.433 364.734 232.264 365.424 232.264C365.822 232.264 366.214 232.33 366.602 232.463C366.99 232.596 367.343 232.811 367.661 233.109C367.979 233.404 368.233 233.795 368.422 234.283C368.611 234.77 368.705 235.37 368.705 236.082V236.58H362.819V235.565H367.512C367.512 235.134 367.426 234.75 367.253 234.412C367.084 234.074 366.842 233.807 366.528 233.612C366.216 233.416 365.848 233.318 365.424 233.318C364.956 233.318 364.552 233.434 364.211 233.666C363.873 233.895 363.613 234.193 363.43 234.561C363.248 234.929 363.157 235.323 363.157 235.744V236.42C363.157 236.997 363.256 237.486 363.455 237.887C363.657 238.285 363.937 238.588 364.295 238.797C364.653 239.002 365.069 239.105 365.543 239.105C365.851 239.105 366.13 239.062 366.378 238.976C366.63 238.886 366.847 238.754 367.03 238.578C367.212 238.399 367.353 238.177 367.452 237.912L368.586 238.23C368.466 238.615 368.266 238.953 367.984 239.244C367.702 239.533 367.354 239.758 366.94 239.92C366.526 240.08 366.06 240.159 365.543 240.159ZM371.663 235.406V240H370.49V232.364H371.623V233.557H371.723C371.902 233.169 372.174 232.857 372.538 232.622C372.903 232.384 373.373 232.264 373.95 232.264C374.467 232.264 374.92 232.37 375.307 232.582C375.695 232.791 375.997 233.109 376.212 233.537C376.428 233.961 376.535 234.498 376.535 235.148V240H375.362V235.227C375.362 234.627 375.206 234.16 374.895 233.825C374.583 233.487 374.156 233.318 373.612 233.318C373.238 233.318 372.903 233.399 372.608 233.562C372.316 233.724 372.086 233.961 371.917 234.273C371.748 234.584 371.663 234.962 371.663 235.406Z" fill="#493986"/>
<path d="M140 247C140 249.761 137.761 252 135 252C132.239 252 130 249.761 130 247C130 244.239 132.239 242 135 242C137.761 242 140 244.239 140 247Z" fill="#493986"/>
<path d="M31.1558 72V61.8182H34.5961C35.3949 61.8182 36.0479 61.9624 36.555 62.2507C37.0654 62.5357 37.4432 62.9219 37.6885 63.4091C37.9337 63.8963 38.0564 64.4399 38.0564 65.0398C38.0564 65.6397 37.9337 66.1849 37.6885 66.6754C37.4465 67.166 37.072 67.5571 36.5649 67.8487C36.0578 68.1371 35.4082 68.2812 34.616 68.2812H32.1501V67.1875H34.5763C35.1231 67.1875 35.5623 67.093 35.8937 66.9041C36.2252 66.7152 36.4655 66.46 36.6146 66.1385C36.7671 65.8137 36.8433 65.4474 36.8433 65.0398C36.8433 64.6321 36.7671 64.2675 36.6146 63.946C36.4655 63.6245 36.2235 63.3726 35.8888 63.1903C35.554 63.0047 35.1099 62.9119 34.5564 62.9119H32.3888V72H31.1558ZM42.9037 72.1591C42.2143 72.1591 41.6094 71.995 41.089 71.6669C40.572 71.3388 40.1676 70.8797 39.876 70.2898C39.5876 69.6998 39.4434 69.0104 39.4434 68.2216C39.4434 67.4261 39.5876 66.7318 39.876 66.1385C40.1676 65.5452 40.572 65.0845 41.089 64.7564C41.6094 64.4283 42.2143 64.2642 42.9037 64.2642C43.5931 64.2642 44.1963 64.4283 44.7133 64.7564C45.2337 65.0845 45.6381 65.5452 45.9264 66.1385C46.2181 66.7318 46.3639 67.4261 46.3639 68.2216C46.3639 69.0104 46.2181 69.6998 45.9264 70.2898C45.6381 70.8797 45.2337 71.3388 44.7133 71.6669C44.1963 71.995 43.5931 72.1591 42.9037 72.1591ZM42.9037 71.1051C43.4273 71.1051 43.8582 70.9709 44.1963 70.7024C44.5344 70.4339 44.7846 70.081 44.947 69.6435C45.1094 69.206 45.1906 68.732 45.1906 68.2216C45.1906 67.7112 45.1094 67.2356 44.947 66.7947C44.7846 66.3539 44.5344 65.9976 44.1963 65.7259C43.8582 65.4541 43.4273 65.3182 42.9037 65.3182C42.38 65.3182 41.9491 65.4541 41.6111 65.7259C41.273 65.9976 41.0228 66.3539 40.8604 66.7947C40.6979 67.2356 40.6167 67.7112 40.6167 68.2216C40.6167 68.732 40.6979 69.206 40.8604 69.6435C41.0228 70.081 41.273 70.4339 41.6111 70.7024C41.9491 70.9709 42.38 71.1051 42.9037 71.1051ZM48.1549 72V64.3636H49.3282V72H48.1549ZM48.7515 63.0909C48.5228 63.0909 48.3256 63.013 48.1599 62.8572C47.9975 62.7015 47.9163 62.5142 47.9163 62.2955C47.9163 62.0767 47.9975 61.8894 48.1599 61.7337C48.3256 61.5779 48.5228 61.5 48.7515 61.5C48.9802 61.5 49.1758 61.5779 49.3382 61.7337C49.5039 61.8894 49.5867 62.0767 49.5867 62.2955C49.5867 62.5142 49.5039 62.7015 49.3382 62.8572C49.1758 63.013 48.9802 63.0909 48.7515 63.0909ZM52.6505 67.4062V72H51.4772V64.3636H52.6107V65.5568H52.7101C52.8891 65.169 53.1609 64.8575 53.5255 64.6222C53.8901 64.3835 54.3607 64.2642 54.9374 64.2642C55.4545 64.2642 55.9069 64.3703 56.2947 64.5824C56.6824 64.7912 56.984 65.1094 57.1995 65.5369C57.4149 65.9612 57.5226 66.4981 57.5226 67.1477V72H56.3493V67.2273C56.3493 66.6274 56.1936 66.16 55.882 65.8253C55.5705 65.4872 55.1429 65.3182 54.5993 65.3182C54.2248 65.3182 53.8901 65.3994 53.5951 65.5618C53.3034 65.7242 53.0731 65.9612 52.904 66.2727C52.735 66.5843 52.6505 66.9621 52.6505 67.4062ZM62.9877 64.3636V65.358H59.0303V64.3636H62.9877ZM60.1837 62.5341H61.357V69.8125C61.357 70.1439 61.405 70.3925 61.5012 70.5582C61.6006 70.7206 61.7265 70.83 61.879 70.8864C62.0348 70.9394 62.1988 70.9659 62.3712 70.9659C62.5004 70.9659 62.6065 70.9593 62.6894 70.946C62.7722 70.9295 62.8385 70.9162 62.8882 70.9062L63.1269 71.9602C63.0473 71.9901 62.9363 72.0199 62.7938 72.0497C62.6512 72.0829 62.4706 72.0994 62.2519 72.0994C61.9204 72.0994 61.5956 72.0282 61.2774 71.8857C60.9626 71.7431 60.7007 71.526 60.4919 71.2344C60.2864 70.9427 60.1837 70.5748 60.1837 70.1307V62.5341ZM69.2668 72H67.9742L71.7128 61.8182H72.9855L76.7242 72H75.4316L72.3889 63.429H72.3094L69.2668 72ZM69.7441 68.0227H74.9543V69.1165H69.7441V68.0227Z" fill="#493986"/>
<path d="M224 540C228.971 540 233 516.471 233 487.444V390.887C233 378.032 233 371.604 233.249 365.555C233.469 360.194 233.833 355.068 234.326 350.364C234.883 345.061 235.661 340.515 237.218 331.425L242 303.5L237.218 275.575C235.661 266.485 234.883 261.939 234.326 256.636C233.833 251.933 233.469 246.807 233.249 241.444C233 235.396 233 228.968 233 216.114V119.556C233 90.5299 228.971 67 224 67" stroke="#493986" stroke-linecap="round" stroke-linejoin="round"/>
<path d="M266 540C270.971 540 275 525.475 275 507.556V447.947C275 440.011 275 436.043 275.249 432.309C275.469 428.999 275.833 425.834 276.326 422.931C276.883 419.657 277.661 416.851 279.218 411.239L284 394L279.218 376.761C277.661 371.149 276.883 368.343 276.326 365.069C275.833 362.166 275.469 359.001 275.249 355.691C275 351.957 275 347.989 275 340.053V280.444C275 262.526 270.971 248 266 248" stroke="#493986" stroke-linecap="round" stroke-linejoin="round"/>
<path d="M205 49C205 44.0293 199.329 40 192.333 40H169.061C165.963 40 164.414 40 162.956 39.7512C161.664 39.5307 160.429 39.1671 159.295 38.6739C158.017 38.1172 156.921 37.3387 154.73 35.7822L148 31L141.27 35.7822C139.079 37.3387 137.983 38.1172 136.705 38.6739C135.571 39.1671 134.336 39.5307 133.044 39.7512C131.586 40 130.037 40 126.939 40H103.667C96.6711 40 91 44.0293 91 49" stroke="#493986" stroke-linecap="round" stroke-linejoin="round"/>
<path d="M204 228.5C204 223.667 200.568 219.75 196.333 219.75H182.248C180.372 219.75 179.435 219.75 178.552 219.508C177.77 219.294 177.023 218.94 176.336 218.461C175.563 217.92 174.9 217.163 173.574 215.649L169.5 211L165.426 215.649C164.1 217.163 163.437 217.92 162.664 218.461C161.977 218.94 161.23 219.294 160.447 219.508C159.565 219.75 158.628 219.75 156.752 219.75H142.667C138.432 219.75 135 223.667 135 228.5" stroke="#493986" stroke-linecap="round" stroke-linejoin="round"/>
<path d="M124.861 17.3636L126.691 20.4858L128.52 17.3636H129.872L127.406 21.1818L129.872 25H128.52L126.691 22.0369L124.861 25H123.509L125.935 21.1818L123.509 17.3636H124.861ZM138.586 25.1591C137.897 25.1591 137.292 24.995 136.772 24.6669C136.255 24.3388 135.85 23.8797 135.559 23.2898C135.27 22.6998 135.126 22.0104 135.126 21.2216C135.126 20.4261 135.27 19.7318 135.559 19.1385C135.85 18.5452 136.255 18.0845 136.772 17.7564C137.292 17.4283 137.897 17.2642 138.586 17.2642C139.276 17.2642 139.879 17.4283 140.396 17.7564C140.916 18.0845 141.321 18.5452 141.609 19.1385C141.901 19.7318 142.047 20.4261 142.047 21.2216C142.047 22.0104 141.901 22.6998 141.609 23.2898C141.321 23.8797 140.916 24.3388 140.396 24.6669C139.879 24.995 139.276 25.1591 138.586 25.1591ZM138.586 24.1051C139.11 24.1051 139.541 23.9709 139.879 23.7024C140.217 23.4339 140.467 23.081 140.63 22.6435C140.792 22.206 140.873 21.732 140.873 21.2216C140.873 20.7112 140.792 20.2356 140.63 19.7947C140.467 19.3539 140.217 18.9976 139.879 18.7259C139.541 18.4541 139.11 18.3182 138.586 18.3182C138.063 18.3182 137.632 18.4541 137.294 18.7259C136.956 18.9976 136.705 19.3539 136.543 19.7947C136.381 20.2356 136.299 20.7112 136.299 21.2216C136.299 21.732 136.381 22.206 136.543 22.6435C136.705 23.081 136.956 23.4339 137.294 23.7024C137.632 23.9709 138.063 24.1051 138.586 24.1051ZM147.238 17.3636V18.358H143.122V17.3636H147.238ZM144.355 25V16.3097C144.355 15.8722 144.457 15.5076 144.663 15.2159C144.868 14.9242 145.135 14.7055 145.463 14.5597C145.791 14.4138 146.138 14.3409 146.502 14.3409C146.791 14.3409 147.026 14.3641 147.208 14.4105C147.391 14.4569 147.526 14.5 147.616 14.5398L147.278 15.554C147.218 15.5341 147.135 15.5092 147.029 15.4794C146.927 15.4496 146.791 15.4347 146.622 15.4347C146.234 15.4347 145.954 15.5324 145.781 15.728C145.612 15.9235 145.528 16.2102 145.528 16.5881V25H144.355ZM152.283 17.3636V18.358H148.167V17.3636H152.283ZM149.4 25V16.3097C149.4 15.8722 149.502 15.5076 149.708 15.2159C149.913 14.9242 150.18 14.7055 150.508 14.5597C150.836 14.4138 151.183 14.3409 151.547 14.3409C151.836 14.3409 152.071 14.3641 152.253 14.4105C152.435 14.4569 152.571 14.5 152.661 14.5398L152.323 15.554C152.263 15.5341 152.18 15.5092 152.074 15.4794C151.971 15.4496 151.836 15.4347 151.667 15.4347C151.279 15.4347 150.999 15.5324 150.826 15.728C150.657 15.9235 150.573 16.2102 150.573 16.5881V25H149.4ZM159.022 19.0739L157.968 19.3722C157.902 19.1965 157.804 19.0258 157.675 18.8601C157.549 18.6911 157.376 18.5518 157.158 18.4425C156.939 18.3331 156.659 18.2784 156.317 18.2784C155.85 18.2784 155.461 18.3861 155.149 18.6016C154.841 18.8137 154.687 19.0838 154.687 19.4119C154.687 19.7036 154.793 19.9339 155.005 20.103C155.217 20.272 155.549 20.4129 155.999 20.5256L157.133 20.804C157.816 20.9697 158.324 21.2232 158.659 21.5646C158.994 21.9027 159.161 22.3385 159.161 22.8722C159.161 23.3097 159.035 23.7008 158.783 24.0455C158.535 24.3902 158.187 24.6619 157.739 24.8608C157.292 25.0597 156.772 25.1591 156.178 25.1591C155.399 25.1591 154.755 24.9901 154.244 24.652C153.734 24.3139 153.411 23.8201 153.275 23.1705L154.388 22.892C154.495 23.303 154.695 23.6113 154.99 23.8168C155.288 24.0223 155.678 24.125 156.158 24.125C156.705 24.125 157.139 24.009 157.461 23.777C157.786 23.5417 157.948 23.2599 157.948 22.9318C157.948 22.6667 157.855 22.4446 157.67 22.2656C157.484 22.0833 157.199 21.9474 156.815 21.858L155.542 21.5597C154.843 21.3939 154.329 21.1371 154.001 20.7891C153.676 20.4377 153.513 19.9986 153.513 19.4716C153.513 19.0407 153.634 18.6596 153.876 18.3281C154.122 17.9967 154.455 17.7365 154.876 17.5476C155.3 17.3587 155.781 17.2642 156.317 17.2642C157.073 17.2642 157.666 17.4299 158.097 17.7614C158.531 18.0928 158.84 18.5303 159.022 19.0739ZM164.129 25.1591C163.393 25.1591 162.759 24.9967 162.225 24.6719C161.695 24.3438 161.285 23.8864 160.997 23.2997C160.712 22.7098 160.569 22.0237 160.569 21.2415C160.569 20.4593 160.712 19.7699 160.997 19.1733C161.285 18.5734 161.686 18.1061 162.2 17.7713C162.717 17.4332 163.32 17.2642 164.01 17.2642C164.407 17.2642 164.8 17.3305 165.188 17.4631C165.576 17.5956 165.929 17.8111 166.247 18.1094C166.565 18.4044 166.819 18.7955 167.008 19.2827C167.197 19.7699 167.291 20.3698 167.291 21.0824V21.5795H161.405V20.5653H166.098C166.098 20.1345 166.012 19.75 165.839 19.4119C165.67 19.0739 165.428 18.8071 165.113 18.6115C164.802 18.416 164.434 18.3182 164.01 18.3182C163.542 18.3182 163.138 18.4342 162.797 18.6662C162.459 18.8949 162.198 19.1932 162.016 19.5611C161.834 19.929 161.743 20.3234 161.743 20.7443V21.4205C161.743 21.9972 161.842 22.486 162.041 22.8871C162.243 23.2848 162.523 23.5881 162.881 23.7969C163.239 24.0024 163.655 24.1051 164.129 24.1051C164.437 24.1051 164.716 24.062 164.964 23.9759C165.216 23.8864 165.433 23.7538 165.616 23.5781C165.798 23.3991 165.939 23.1771 166.038 22.9119L167.172 23.2301C167.052 23.6146 166.852 23.9527 166.57 24.2443C166.288 24.5327 165.94 24.758 165.526 24.9205C165.112 25.0795 164.646 25.1591 164.129 25.1591ZM172.397 17.3636V18.358H168.439V17.3636H172.397ZM169.593 15.5341H170.766V22.8125C170.766 23.1439 170.814 23.3925 170.91 23.5582C171.01 23.7206 171.136 23.83 171.288 23.8864C171.444 23.9394 171.608 23.9659 171.78 23.9659C171.91 23.9659 172.016 23.9593 172.099 23.946C172.181 23.9295 172.248 23.9162 172.297 23.9062L172.536 24.9602C172.456 24.9901 172.345 25.0199 172.203 25.0497C172.06 25.0829 171.88 25.0994 171.661 25.0994C171.33 25.0994 171.005 25.0282 170.687 24.8857C170.372 24.7431 170.11 24.526 169.901 24.2344C169.696 23.9427 169.593 23.5748 169.593 23.1307V15.5341Z" fill="#493986"/>
<path d="M293 360.867H293.895L299.463 365.202H299.543V361.006H300.636V366.713H299.702L294.173 362.498H294.094V366.853H293V360.867ZM292.841 375.481C292.841 374.844 293.002 374.283 293.323 373.795C293.648 373.308 294.105 372.927 294.695 372.652C295.289 372.377 295.99 372.239 296.798 372.239C297.6 372.239 298.296 372.377 298.886 372.652C299.476 372.927 299.932 373.31 300.254 373.8C300.575 374.291 300.736 374.858 300.736 375.501C300.736 375.998 300.653 376.391 300.487 376.679C300.325 376.971 300.139 377.193 299.93 377.345C299.725 377.501 299.556 377.622 299.423 377.708V377.808H303.182V378.981H293V377.847H294.173V377.708C294.034 377.622 293.858 377.499 293.646 377.34C293.437 377.181 293.25 376.954 293.085 376.659C292.922 376.364 292.841 375.971 292.841 375.481ZM293.895 375.64C293.895 376.111 294.018 376.508 294.263 376.833C294.511 377.158 294.854 377.405 295.292 377.574C295.733 377.743 296.241 377.827 296.818 377.827C297.388 377.827 297.887 377.745 298.315 377.579C298.745 377.413 299.08 377.168 299.319 376.843C299.561 376.518 299.682 376.117 299.682 375.64C299.682 375.143 299.554 374.728 299.299 374.397C299.047 374.069 298.704 373.822 298.27 373.656C297.839 373.494 297.355 373.413 296.818 373.413C296.275 373.413 295.781 373.496 295.337 373.661C294.896 373.83 294.545 374.079 294.283 374.407C294.024 374.738 293.895 375.149 293.895 375.64ZM293 381.293H300.636V382.466H293V381.293ZM301.909 381.889C301.909 381.661 301.987 381.463 302.143 381.298C302.299 381.135 302.486 381.054 302.705 381.054C302.923 381.054 303.111 381.135 303.266 381.298C303.422 381.463 303.5 381.661 303.5 381.889C303.5 382.118 303.422 382.313 303.266 382.476C303.111 382.642 302.923 382.724 302.705 382.724C302.486 382.724 302.299 382.642 302.143 382.476C301.987 382.313 301.909 382.118 301.909 381.889ZM298.926 390.024L298.628 388.97C298.804 388.904 298.974 388.806 299.14 388.677C299.309 388.551 299.448 388.378 299.558 388.16C299.667 387.941 299.722 387.661 299.722 387.319C299.722 386.852 299.614 386.463 299.398 386.151C299.186 385.843 298.916 385.689 298.588 385.689C298.296 385.689 298.066 385.795 297.897 386.007C297.728 386.219 297.587 386.55 297.474 387.001L297.196 388.135C297.03 388.818 296.777 389.326 296.435 389.661C296.097 389.996 295.661 390.163 295.128 390.163C294.69 390.163 294.299 390.037 293.955 389.785C293.61 389.537 293.338 389.189 293.139 388.741C292.94 388.294 292.841 387.774 292.841 387.18C292.841 386.401 293.01 385.757 293.348 385.246C293.686 384.736 294.18 384.413 294.83 384.277L295.108 385.39C294.697 385.497 294.389 385.697 294.183 385.992C293.978 386.29 293.875 386.68 293.875 387.16C293.875 387.707 293.991 388.141 294.223 388.463C294.458 388.788 294.74 388.95 295.068 388.95C295.333 388.95 295.555 388.857 295.734 388.672C295.917 388.486 296.053 388.201 296.142 387.817L296.44 386.544C296.606 385.845 296.863 385.331 297.211 385.003C297.562 384.678 298.001 384.515 298.528 384.515C298.959 384.515 299.34 384.636 299.672 384.878C300.003 385.124 300.263 385.457 300.452 385.878C300.641 386.302 300.736 386.782 300.736 387.319C300.736 388.075 300.57 388.668 300.239 389.099C299.907 389.533 299.47 389.842 298.926 390.024ZM300.636 395.25H299.642V391.293H300.636V395.25ZM302.466 392.446V393.62H295.187C294.856 393.62 294.607 393.668 294.442 393.764C294.279 393.863 294.17 393.989 294.114 394.142C294.061 394.297 294.034 394.462 294.034 394.634C294.034 394.763 294.041 394.869 294.054 394.952C294.071 395.035 294.084 395.101 294.094 395.151L293.04 395.39C293.01 395.31 292.98 395.199 292.95 395.056C292.917 394.914 292.901 394.733 292.901 394.515C292.901 394.183 292.972 393.858 293.114 393.54C293.257 393.225 293.474 392.963 293.766 392.755C294.057 392.549 294.425 392.446 294.869 392.446H302.466ZM292.821 399.262C292.821 398.779 292.912 398.339 293.094 397.945C293.28 397.551 293.547 397.237 293.895 397.005C294.246 396.773 294.67 396.657 295.168 396.657C295.605 396.657 295.96 396.743 296.232 396.916C296.507 397.088 296.722 397.319 296.878 397.607C297.034 397.895 297.15 398.213 297.226 398.561C297.305 398.913 297.368 399.266 297.415 399.62C297.474 400.084 297.519 400.461 297.549 400.749C297.582 401.041 297.637 401.253 297.713 401.385C297.789 401.521 297.922 401.589 298.111 401.589H298.151C298.641 401.589 299.022 401.455 299.294 401.186C299.566 400.921 299.702 400.519 299.702 399.978C299.702 399.418 299.579 398.979 299.334 398.661C299.089 398.343 298.827 398.119 298.548 397.99L298.946 396.876C299.41 397.075 299.771 397.34 300.03 397.672C300.292 398.006 300.474 398.371 300.577 398.765C300.683 399.163 300.736 399.554 300.736 399.939C300.736 400.184 300.706 400.466 300.646 400.784C300.59 401.105 300.472 401.415 300.293 401.713C300.114 402.015 299.844 402.265 299.483 402.464C299.122 402.663 298.638 402.762 298.031 402.762H293V401.589H294.034V401.529C293.868 401.45 293.691 401.317 293.502 401.132C293.313 400.946 293.152 400.699 293.02 400.391C292.887 400.083 292.821 399.707 292.821 399.262ZM293.875 399.441C293.875 399.905 293.966 400.297 294.148 400.615C294.331 400.936 294.566 401.178 294.854 401.341C295.143 401.506 295.446 401.589 295.764 401.589H296.838C296.778 401.539 296.724 401.43 296.674 401.261C296.628 401.095 296.586 400.903 296.55 400.684C296.517 400.469 296.487 400.258 296.46 400.053C296.437 399.851 296.417 399.687 296.401 399.561C296.361 399.256 296.296 398.971 296.207 398.706C296.12 398.444 295.99 398.232 295.814 398.069C295.642 397.91 295.406 397.831 295.108 397.831C294.7 397.831 294.392 397.981 294.183 398.283C293.978 398.588 293.875 398.974 293.875 399.441ZM297.594 406.077H293V404.904H300.636V406.037H299.443V406.137C299.831 406.316 300.143 406.588 300.378 406.952C300.616 407.317 300.736 407.787 300.736 408.364C300.736 408.881 300.63 409.334 300.418 409.721C300.209 410.109 299.891 410.411 299.463 410.626C299.039 410.842 298.502 410.949 297.852 410.949H293V409.776H297.773C298.373 409.776 298.84 409.62 299.175 409.309C299.513 408.997 299.682 408.57 299.682 408.026C299.682 407.652 299.601 407.317 299.438 407.022C299.276 406.73 299.039 406.5 298.727 406.331C298.416 406.162 298.038 406.077 297.594 406.077ZM292.841 416.196C292.841 415.48 293.01 414.863 293.348 414.346C293.686 413.829 294.152 413.431 294.745 413.153C295.338 412.875 296.016 412.735 296.778 412.735C297.554 412.735 298.238 412.878 298.832 413.163C299.428 413.451 299.894 413.852 300.229 414.366C300.567 414.883 300.736 415.486 300.736 416.176C300.736 416.713 300.636 417.197 300.437 417.627C300.239 418.058 299.96 418.411 299.602 418.686C299.244 418.962 298.827 419.132 298.349 419.199V418.025C298.697 417.936 299.006 417.737 299.274 417.429C299.546 417.124 299.682 416.713 299.682 416.196C299.682 415.738 299.562 415.337 299.324 414.993C299.089 414.651 298.755 414.384 298.325 414.192C297.897 414.003 297.395 413.909 296.818 413.909C296.228 413.909 295.714 414.002 295.277 414.187C294.839 414.376 294.5 414.641 294.258 414.983C294.016 415.327 293.895 415.732 293.895 416.196C293.895 416.501 293.948 416.777 294.054 417.026C294.16 417.275 294.312 417.485 294.511 417.657C294.71 417.83 294.949 417.952 295.227 418.025V419.199C294.777 419.132 294.37 418.968 294.009 418.706C293.651 418.448 293.366 418.105 293.154 417.677C292.945 417.253 292.841 416.759 292.841 416.196ZM292.841 424.115C292.841 423.38 293.003 422.745 293.328 422.211C293.656 421.681 294.114 421.272 294.7 420.983C295.29 420.698 295.976 420.556 296.759 420.556C297.541 420.556 298.23 420.698 298.827 420.983C299.427 421.272 299.894 421.673 300.229 422.186C300.567 422.703 300.736 423.307 300.736 423.996C300.736 424.394 300.67 424.787 300.537 425.174C300.404 425.562 300.189 425.915 299.891 426.233C299.596 426.552 299.205 426.805 298.717 426.994C298.23 427.183 297.63 427.277 296.918 427.277H296.42V421.391H297.435V426.084C297.866 426.084 298.25 425.998 298.588 425.826C298.926 425.657 299.193 425.415 299.388 425.1C299.584 424.788 299.682 424.42 299.682 423.996C299.682 423.529 299.566 423.124 299.334 422.783C299.105 422.445 298.807 422.185 298.439 422.002C298.071 421.82 297.677 421.729 297.256 421.729H296.58C296.003 421.729 295.514 421.828 295.113 422.027C294.715 422.23 294.412 422.51 294.203 422.868C293.998 423.226 293.895 423.641 293.895 424.115C293.895 424.424 293.938 424.702 294.024 424.951C294.114 425.203 294.246 425.42 294.422 425.602C294.601 425.784 294.823 425.925 295.088 426.025L294.77 427.158C294.385 427.039 294.047 426.838 293.756 426.556C293.467 426.275 293.242 425.927 293.08 425.512C292.92 425.098 292.841 424.632 292.841 424.115Z" fill="#493986"/>
<path d="M258.636 274.592H257.642V270.475H258.636V274.592ZM251 271.708H259.69C260.128 271.708 260.492 271.811 260.784 272.016C261.076 272.222 261.295 272.489 261.44 272.817C261.586 273.145 261.659 273.491 261.659 273.856C261.659 274.144 261.636 274.38 261.589 274.562C261.543 274.744 261.5 274.88 261.46 274.969L260.446 274.631C260.466 274.572 260.491 274.489 260.521 274.383C260.55 274.28 260.565 274.144 260.565 273.975C260.565 273.587 260.468 273.307 260.272 273.135C260.076 272.966 259.79 272.881 259.412 272.881H251V271.708ZM250.841 279.024C250.841 278.334 251.005 277.73 251.333 277.209C251.661 276.692 252.12 276.288 252.71 275.996C253.3 275.708 253.99 275.564 254.778 275.564C255.574 275.564 256.268 275.708 256.862 275.996C257.455 276.288 257.915 276.692 258.244 277.209C258.572 277.73 258.736 278.334 258.736 279.024C258.736 279.713 258.572 280.316 258.244 280.833C257.915 281.354 257.455 281.758 256.862 282.047C256.268 282.338 255.574 282.484 254.778 282.484C253.99 282.484 253.3 282.338 252.71 282.047C252.12 281.758 251.661 281.354 251.333 280.833C251.005 280.316 250.841 279.713 250.841 279.024ZM251.895 279.024C251.895 279.547 252.029 279.978 252.298 280.316C252.566 280.654 252.919 280.905 253.357 281.067C253.794 281.23 254.268 281.311 254.778 281.311C255.289 281.311 255.764 281.23 256.205 281.067C256.646 280.905 257.002 280.654 257.274 280.316C257.546 279.978 257.682 279.547 257.682 279.024C257.682 278.5 257.546 278.069 257.274 277.731C257.002 277.393 256.646 277.143 256.205 276.98C255.764 276.818 255.289 276.737 254.778 276.737C254.268 276.737 253.794 276.818 253.357 276.98C252.919 277.143 252.566 277.393 252.298 277.731C252.029 278.069 251.895 278.5 251.895 279.024ZM250.841 287.377C250.841 286.661 251.01 286.045 251.348 285.528C251.686 285.011 252.152 284.613 252.745 284.335C253.338 284.056 254.016 283.917 254.778 283.917C255.554 283.917 256.238 284.06 256.832 284.345C257.428 284.633 257.894 285.034 258.229 285.548C258.567 286.065 258.736 286.668 258.736 287.357C258.736 287.894 258.636 288.378 258.437 288.809C258.239 289.24 257.96 289.593 257.602 289.868C257.244 290.143 256.827 290.314 256.349 290.38V289.207C256.697 289.117 257.006 288.919 257.274 288.61C257.546 288.305 257.682 287.894 257.682 287.377C257.682 286.92 257.562 286.519 257.324 286.174C257.089 285.833 256.755 285.566 256.325 285.374C255.897 285.185 255.395 285.09 254.818 285.09C254.228 285.09 253.714 285.183 253.277 285.369C252.839 285.558 252.5 285.823 252.258 286.164C252.016 286.509 251.895 286.913 251.895 287.377C251.895 287.682 251.948 287.959 252.054 288.208C252.16 288.456 252.312 288.667 252.511 288.839C252.71 289.011 252.949 289.134 253.227 289.207V290.38C252.777 290.314 252.37 290.15 252.009 289.888C251.651 289.629 251.366 289.286 251.154 288.859C250.945 288.435 250.841 287.941 250.841 287.377ZM250.821 294.343C250.821 293.859 250.912 293.419 251.094 293.025C251.28 292.631 251.547 292.317 251.895 292.085C252.246 291.853 252.67 291.737 253.168 291.737C253.605 291.737 253.96 291.824 254.232 291.996C254.507 292.168 254.722 292.399 254.878 292.687C255.034 292.975 255.15 293.294 255.226 293.642C255.305 293.993 255.368 294.346 255.415 294.7C255.474 295.164 255.519 295.541 255.549 295.829C255.582 296.121 255.637 296.333 255.713 296.465C255.789 296.601 255.922 296.669 256.111 296.669H256.151C256.641 296.669 257.022 296.535 257.294 296.267C257.566 296.001 257.702 295.599 257.702 295.058C257.702 294.498 257.579 294.059 257.334 293.741C257.089 293.423 256.827 293.199 256.548 293.07L256.946 291.956C257.41 292.155 257.771 292.42 258.03 292.752C258.292 293.086 258.474 293.451 258.577 293.845C258.683 294.243 258.736 294.634 258.736 295.019C258.736 295.264 258.706 295.546 258.646 295.864C258.59 296.185 258.472 296.495 258.293 296.794C258.114 297.095 257.844 297.345 257.483 297.544C257.122 297.743 256.638 297.843 256.031 297.843H251V296.669H252.034V296.61C251.868 296.53 251.691 296.397 251.502 296.212C251.313 296.026 251.152 295.779 251.02 295.471C250.887 295.163 250.821 294.787 250.821 294.343ZM251.875 294.521C251.875 294.986 251.966 295.377 252.148 295.695C252.331 296.016 252.566 296.258 252.854 296.421C253.143 296.586 253.446 296.669 253.764 296.669H254.838C254.778 296.62 254.724 296.51 254.674 296.341C254.628 296.175 254.586 295.983 254.55 295.764C254.517 295.549 254.487 295.338 254.46 295.133C254.437 294.931 254.417 294.767 254.401 294.641C254.361 294.336 254.296 294.051 254.207 293.786C254.12 293.524 253.99 293.312 253.814 293.149C253.642 292.99 253.406 292.911 253.108 292.911C252.7 292.911 252.392 293.061 252.183 293.363C251.978 293.668 251.875 294.054 251.875 294.521ZM261.182 301.157H251V299.984H261.182V301.157ZM261.182 308.417H251V307.244H261.182V308.417ZM250.841 313.768C250.841 313.032 251.003 312.397 251.328 311.864C251.656 311.333 252.114 310.924 252.7 310.636C253.29 310.351 253.976 310.208 254.759 310.208C255.541 310.208 256.23 310.351 256.827 310.636C257.427 310.924 257.894 311.325 258.229 311.839C258.567 312.356 258.736 312.959 258.736 313.648C258.736 314.046 258.67 314.439 258.537 314.827C258.404 315.214 258.189 315.567 257.891 315.886C257.596 316.204 257.205 316.457 256.717 316.646C256.23 316.835 255.63 316.93 254.918 316.93H254.42V311.043H255.435V315.737C255.866 315.737 256.25 315.65 256.588 315.478C256.926 315.309 257.193 315.067 257.388 314.752C257.584 314.441 257.682 314.073 257.682 313.648C257.682 313.181 257.566 312.777 257.334 312.435C257.105 312.097 256.807 311.837 256.439 311.655C256.071 311.473 255.677 311.381 255.256 311.381H254.58C254.003 311.381 253.514 311.481 253.113 311.68C252.715 311.882 252.412 312.162 252.203 312.52C251.998 312.878 251.895 313.294 251.895 313.768C251.895 314.076 251.938 314.354 252.024 314.603C252.114 314.855 252.246 315.072 252.422 315.254C252.601 315.437 252.823 315.577 253.088 315.677L252.77 316.81C252.385 316.691 252.047 316.491 251.756 316.209C251.467 315.927 251.242 315.579 251.08 315.165C250.92 314.75 250.841 314.285 250.841 313.768ZM255.594 319.888H251V318.714H258.636V319.848H257.443V319.947C257.831 320.126 258.143 320.398 258.378 320.763C258.616 321.127 258.736 321.598 258.736 322.175C258.736 322.692 258.63 323.144 258.418 323.532C258.209 323.92 257.891 324.221 257.463 324.437C257.039 324.652 256.502 324.76 255.852 324.76H251V323.587H255.773C256.373 323.587 256.84 323.431 257.175 323.119C257.513 322.808 257.682 322.38 257.682 321.837C257.682 321.462 257.601 321.127 257.438 320.832C257.276 320.541 257.039 320.31 256.727 320.141C256.416 319.972 256.038 319.888 255.594 319.888ZM247.977 329.986C247.977 329.42 248.05 328.932 248.196 328.525C248.339 328.117 248.527 327.777 248.763 327.506C248.995 327.237 249.243 327.023 249.509 326.864L250.165 327.799C250.026 327.905 249.866 328.039 249.687 328.202C249.505 328.364 249.348 328.586 249.215 328.868C249.079 329.153 249.011 329.526 249.011 329.986C249.011 330.603 249.161 331.112 249.459 331.513C249.757 331.914 250.224 332.114 250.861 332.114H252.412V332.015C252.273 331.929 252.1 331.806 251.895 331.647C251.693 331.491 251.512 331.266 251.353 330.971C251.197 330.679 251.119 330.285 251.119 329.787C251.119 329.171 251.265 328.617 251.557 328.127C251.848 327.64 252.273 327.254 252.83 326.969C253.386 326.687 254.062 326.546 254.858 326.546C255.64 326.546 256.321 326.684 256.901 326.959C257.485 327.234 257.935 327.617 258.254 328.107C258.575 328.598 258.736 329.164 258.736 329.807C258.736 330.305 258.653 330.699 258.487 330.991C258.325 331.286 258.139 331.511 257.93 331.667C257.725 331.826 257.556 331.948 257.423 332.035V332.154H258.636V333.287H250.781C250.125 333.287 249.591 333.138 249.18 332.84C248.766 332.545 248.463 332.147 248.271 331.647C248.075 331.15 247.977 330.596 247.977 329.986ZM252.173 329.947C252.173 330.417 252.281 330.815 252.496 331.14C252.712 331.465 253.022 331.711 253.426 331.881C253.83 332.05 254.314 332.134 254.878 332.134C255.428 332.134 255.914 332.051 256.335 331.885C256.755 331.72 257.085 331.474 257.324 331.15C257.562 330.825 257.682 330.424 257.682 329.947C257.682 329.449 257.556 329.035 257.304 328.704C257.052 328.376 256.714 328.129 256.29 327.963C255.866 327.8 255.395 327.719 254.878 327.719C254.348 327.719 253.879 327.802 253.471 327.968C253.067 328.137 252.748 328.385 252.516 328.714C252.288 329.045 252.173 329.456 252.173 329.947ZM258.636 338.756H257.642V334.799H258.636V338.756ZM260.466 335.952V337.126H253.187C252.856 337.126 252.607 337.174 252.442 337.27C252.279 337.369 252.17 337.495 252.114 337.648C252.061 337.803 252.034 337.967 252.034 338.14C252.034 338.269 252.041 338.375 252.054 338.458C252.071 338.541 252.084 338.607 252.094 338.657L251.04 338.895C251.01 338.816 250.98 338.705 250.95 338.562C250.917 338.42 250.901 338.239 250.901 338.02C250.901 337.689 250.972 337.364 251.114 337.046C251.257 336.731 251.474 336.469 251.766 336.26C252.057 336.055 252.425 335.952 252.869 335.952H260.466ZM255.594 341.858H251V340.685H261.182V341.858H257.443V341.958C257.838 342.137 258.151 342.405 258.383 342.763C258.618 343.125 258.736 343.605 258.736 344.205C258.736 344.725 258.631 345.181 258.423 345.572C258.217 345.963 257.901 346.267 257.473 346.482C257.049 346.701 256.509 346.81 255.852 346.81H251V345.637H255.773C256.379 345.637 256.848 345.479 257.18 345.165C257.514 344.853 257.682 344.421 257.682 343.867C257.682 343.483 257.601 343.138 257.438 342.833C257.276 342.531 257.039 342.293 256.727 342.117C256.416 341.945 256.038 341.858 255.594 341.858Z" fill="#493986"/>
<path d="M131.2 200.364L133.029 203.486L134.859 200.364H136.211L133.745 204.182L136.211 208H134.859L133.029 205.037L131.2 208H129.848L132.274 204.182L129.848 200.364H131.2ZM141.823 210.864V200.364H142.956V201.577H143.096C143.182 201.444 143.301 201.275 143.454 201.07C143.609 200.861 143.831 200.675 144.12 200.513C144.411 200.347 144.806 200.264 145.303 200.264C145.946 200.264 146.513 200.425 147.003 200.746C147.494 201.068 147.877 201.524 148.152 202.114C148.427 202.704 148.564 203.4 148.564 204.202C148.564 205.01 148.427 205.711 148.152 206.305C147.877 206.895 147.495 207.352 147.008 207.677C146.521 207.998 145.959 208.159 145.323 208.159C144.832 208.159 144.44 208.078 144.145 207.915C143.85 207.75 143.623 207.562 143.464 207.354C143.304 207.142 143.182 206.966 143.096 206.827H142.996V210.864H141.823ZM142.976 204.182C142.976 204.759 143.061 205.267 143.23 205.708C143.399 206.146 143.646 206.489 143.971 206.737C144.295 206.982 144.693 207.105 145.164 207.105C145.654 207.105 146.064 206.976 146.392 206.717C146.723 206.455 146.972 206.104 147.138 205.663C147.307 205.219 147.391 204.725 147.391 204.182C147.391 203.645 147.308 203.161 147.142 202.73C146.98 202.296 146.733 201.953 146.402 201.701C146.074 201.446 145.661 201.318 145.164 201.318C144.687 201.318 144.285 201.439 143.961 201.681C143.636 201.92 143.391 202.254 143.225 202.685C143.059 203.113 142.976 203.612 142.976 204.182ZM150.354 208V200.364H151.488V201.517H151.567C151.706 201.139 151.958 200.833 152.323 200.597C152.687 200.362 153.098 200.244 153.556 200.244C153.642 200.244 153.75 200.246 153.879 200.249C154.008 200.253 154.106 200.258 154.172 200.264V201.457C154.133 201.447 154.041 201.433 153.899 201.413C153.76 201.389 153.612 201.378 153.456 201.378C153.085 201.378 152.754 201.456 152.462 201.612C152.174 201.764 151.945 201.976 151.776 202.248C151.61 202.516 151.527 202.823 151.527 203.168V208H150.354ZM158.433 208.159C157.744 208.159 157.139 207.995 156.618 207.667C156.101 207.339 155.697 206.88 155.405 206.29C155.117 205.7 154.973 205.01 154.973 204.222C154.973 203.426 155.117 202.732 155.405 202.138C155.697 201.545 156.101 201.085 156.618 200.756C157.139 200.428 157.744 200.264 158.433 200.264C159.122 200.264 159.726 200.428 160.243 200.756C160.763 201.085 161.167 201.545 161.456 202.138C161.747 202.732 161.893 203.426 161.893 204.222C161.893 205.01 161.747 205.7 161.456 206.29C161.167 206.88 160.763 207.339 160.243 207.667C159.726 207.995 159.122 208.159 158.433 208.159ZM158.433 207.105C158.957 207.105 159.388 206.971 159.726 206.702C160.064 206.434 160.314 206.081 160.476 205.643C160.639 205.206 160.72 204.732 160.72 204.222C160.72 203.711 160.639 203.236 160.476 202.795C160.314 202.354 160.064 201.998 159.726 201.726C159.388 201.454 158.957 201.318 158.433 201.318C157.909 201.318 157.478 201.454 157.14 201.726C156.802 201.998 156.552 202.354 156.39 202.795C156.227 203.236 156.146 203.711 156.146 204.222C156.146 204.732 156.227 205.206 156.39 205.643C156.552 206.081 156.802 206.434 157.14 206.702C157.478 206.971 157.909 207.105 158.433 207.105ZM163.684 200.364H164.858V208.557C164.858 209.027 164.776 209.435 164.614 209.78C164.455 210.125 164.213 210.391 163.888 210.58C163.567 210.769 163.161 210.864 162.67 210.864C162.63 210.864 162.59 210.864 162.551 210.864C162.511 210.864 162.471 210.864 162.431 210.864V209.77C162.471 209.77 162.508 209.77 162.541 209.77C162.574 209.77 162.61 209.77 162.65 209.77C163.008 209.77 163.27 209.664 163.436 209.452C163.601 209.243 163.684 208.945 163.684 208.557V200.364ZM164.261 199.091C164.032 199.091 163.835 199.013 163.669 198.857C163.507 198.701 163.426 198.514 163.426 198.295C163.426 198.077 163.507 197.889 163.669 197.734C163.835 197.578 164.032 197.5 164.261 197.5C164.49 197.5 164.685 197.578 164.848 197.734C165.013 197.889 165.096 198.077 165.096 198.295C165.096 198.514 165.013 198.701 164.848 198.857C164.685 199.013 164.49 199.091 164.261 199.091ZM170.208 208.159C169.472 208.159 168.838 207.997 168.304 207.672C167.774 207.344 167.364 206.886 167.076 206.3C166.791 205.71 166.649 205.024 166.649 204.241C166.649 203.459 166.791 202.77 167.076 202.173C167.364 201.573 167.765 201.106 168.279 200.771C168.796 200.433 169.399 200.264 170.089 200.264C170.487 200.264 170.879 200.33 171.267 200.463C171.655 200.596 172.008 200.811 172.326 201.109C172.644 201.404 172.898 201.795 173.087 202.283C173.276 202.77 173.37 203.37 173.37 204.082V204.58H167.484V203.565H172.177C172.177 203.134 172.091 202.75 171.918 202.412C171.749 202.074 171.507 201.807 171.193 201.612C170.881 201.416 170.513 201.318 170.089 201.318C169.622 201.318 169.217 201.434 168.876 201.666C168.538 201.895 168.278 202.193 168.095 202.561C167.913 202.929 167.822 203.323 167.822 203.744V204.42C167.822 204.997 167.921 205.486 168.12 205.887C168.322 206.285 168.602 206.588 168.96 206.797C169.318 207.002 169.734 207.105 170.208 207.105C170.516 207.105 170.795 207.062 171.043 206.976C171.295 206.886 171.512 206.754 171.695 206.578C171.877 206.399 172.018 206.177 172.117 205.912L173.251 206.23C173.131 206.615 172.931 206.953 172.649 207.244C172.368 207.533 172.02 207.758 171.605 207.92C171.191 208.08 170.725 208.159 170.208 208.159ZM178.257 208.159C177.541 208.159 176.925 207.99 176.408 207.652C175.891 207.314 175.493 206.848 175.215 206.255C174.936 205.662 174.797 204.984 174.797 204.222C174.797 203.446 174.939 202.762 175.225 202.168C175.513 201.572 175.914 201.106 176.428 200.771C176.945 200.433 177.548 200.264 178.237 200.264C178.774 200.264 179.258 200.364 179.689 200.562C180.12 200.761 180.473 201.04 180.748 201.398C181.023 201.756 181.194 202.173 181.26 202.651H180.087C179.997 202.303 179.798 201.994 179.49 201.726C179.185 201.454 178.774 201.318 178.257 201.318C177.8 201.318 177.399 201.437 177.054 201.676C176.713 201.911 176.446 202.245 176.254 202.675C176.065 203.103 175.97 203.605 175.97 204.182C175.97 204.772 176.063 205.286 176.249 205.723C176.438 206.161 176.703 206.5 177.044 206.742C177.389 206.984 177.793 207.105 178.257 207.105C178.562 207.105 178.839 207.052 179.087 206.946C179.336 206.84 179.546 206.688 179.719 206.489C179.891 206.29 180.014 206.051 180.087 205.773H181.26C181.194 206.223 181.03 206.629 180.768 206.991C180.509 207.349 180.166 207.634 179.739 207.846C179.314 208.055 178.821 208.159 178.257 208.159ZM186.296 200.364V201.358H182.339V200.364H186.296ZM183.492 198.534H184.666V205.812C184.666 206.144 184.714 206.393 184.81 206.558C184.909 206.721 185.035 206.83 185.188 206.886C185.343 206.939 185.507 206.966 185.68 206.966C185.809 206.966 185.915 206.959 185.998 206.946C186.081 206.929 186.147 206.916 186.197 206.906L186.435 207.96C186.356 207.99 186.245 208.02 186.102 208.05C185.96 208.083 185.779 208.099 185.56 208.099C185.229 208.099 184.904 208.028 184.586 207.886C184.271 207.743 184.009 207.526 183.801 207.234C183.595 206.943 183.492 206.575 183.492 206.131V198.534ZM191.181 208.159C190.445 208.159 189.81 207.997 189.277 207.672C188.746 207.344 188.337 206.886 188.049 206.3C187.764 205.71 187.621 205.024 187.621 204.241C187.621 203.459 187.764 202.77 188.049 202.173C188.337 201.573 188.738 201.106 189.252 200.771C189.769 200.433 190.372 200.264 191.062 200.264C191.459 200.264 191.852 200.33 192.24 200.463C192.628 200.596 192.981 200.811 193.299 201.109C193.617 201.404 193.87 201.795 194.059 202.283C194.248 202.77 194.343 203.37 194.343 204.082V204.58H188.456V203.565H193.15C193.15 203.134 193.063 202.75 192.891 202.412C192.722 202.074 192.48 201.807 192.165 201.612C191.854 201.416 191.486 201.318 191.062 201.318C190.594 201.318 190.19 201.434 189.848 201.666C189.51 201.895 189.25 202.193 189.068 202.561C188.886 202.929 188.794 203.323 188.794 203.744V204.42C188.794 204.997 188.894 205.486 189.093 205.887C189.295 206.285 189.575 206.588 189.933 206.797C190.291 207.002 190.707 207.105 191.181 207.105C191.489 207.105 191.767 207.062 192.016 206.976C192.268 206.886 192.485 206.754 192.667 206.578C192.85 206.399 192.991 206.177 193.09 205.912L194.223 206.23C194.104 206.615 193.904 206.953 193.622 207.244C193.34 207.533 192.992 207.758 192.578 207.92C192.164 208.08 191.698 208.159 191.181 208.159ZM199.011 208.159C198.375 208.159 197.813 207.998 197.326 207.677C196.839 207.352 196.457 206.895 196.182 206.305C195.907 205.711 195.77 205.01 195.77 204.202C195.77 203.4 195.907 202.704 196.182 202.114C196.457 201.524 196.84 201.068 197.331 200.746C197.821 200.425 198.388 200.264 199.031 200.264C199.528 200.264 199.921 200.347 200.209 200.513C200.501 200.675 200.723 200.861 200.875 201.07C201.031 201.275 201.152 201.444 201.238 201.577H201.338V197.818H202.511V208H201.378V206.827H201.238C201.152 206.966 201.03 207.142 200.87 207.354C200.711 207.562 200.484 207.75 200.189 207.915C199.894 208.078 199.502 208.159 199.011 208.159ZM199.17 207.105C199.641 207.105 200.039 206.982 200.363 206.737C200.688 206.489 200.935 206.146 201.104 205.708C201.273 205.267 201.358 204.759 201.358 204.182C201.358 203.612 201.275 203.113 201.109 202.685C200.943 202.254 200.698 201.92 200.373 201.681C200.049 201.439 199.647 201.318 199.17 201.318C198.673 201.318 198.259 201.446 197.927 201.701C197.599 201.953 197.352 202.296 197.187 202.73C197.024 203.161 196.943 203.645 196.943 204.182C196.943 204.725 197.026 205.219 197.191 205.663C197.361 206.104 197.609 206.455 197.937 206.717C198.269 206.976 198.68 207.105 199.17 207.105Z" fill="#493986"/>
<path d="M145.351 536H143.942C143.858 535.595 143.713 535.239 143.504 534.932C143.3 534.625 143.05 534.367 142.754 534.159C142.463 533.947 142.139 533.788 141.783 533.682C141.427 533.576 141.055 533.523 140.669 533.523C139.964 533.523 139.326 533.701 138.754 534.057C138.186 534.413 137.733 534.938 137.396 535.631C137.063 536.324 136.896 537.174 136.896 538.182C136.896 539.189 137.063 540.04 137.396 540.733C137.733 541.426 138.186 541.951 138.754 542.307C139.326 542.663 139.964 542.841 140.669 542.841C141.055 542.841 141.427 542.788 141.783 542.682C142.139 542.576 142.463 542.419 142.754 542.21C143.05 541.998 143.3 541.739 143.504 541.432C143.713 541.121 143.858 540.765 143.942 540.364H145.351C145.245 540.958 145.052 541.491 144.771 541.96C144.491 542.43 144.143 542.83 143.726 543.159C143.309 543.485 142.841 543.733 142.322 543.903C141.807 544.074 141.256 544.159 140.669 544.159C139.677 544.159 138.794 543.917 138.021 543.432C137.249 542.947 136.641 542.258 136.197 541.364C135.754 540.47 135.533 539.409 135.533 538.182C135.533 536.955 135.754 535.894 136.197 535C136.641 534.106 137.249 533.417 138.021 532.932C138.794 532.447 139.677 532.205 140.669 532.205C141.256 532.205 141.807 532.29 142.322 532.46C142.841 532.631 143.309 532.881 143.726 533.21C144.143 533.536 144.491 533.934 144.771 534.403C145.052 534.869 145.245 535.402 145.351 536ZM150.014 544.205C149.461 544.205 148.959 544.1 148.509 543.892C148.058 543.68 147.7 543.375 147.435 542.977C147.17 542.576 147.037 542.091 147.037 541.523C147.037 541.023 147.135 540.617 147.332 540.307C147.529 539.992 147.793 539.746 148.122 539.568C148.452 539.39 148.815 539.258 149.213 539.17C149.615 539.08 150.018 539.008 150.423 538.955C150.954 538.886 151.384 538.835 151.713 538.801C152.046 538.763 152.289 538.701 152.44 538.614C152.596 538.527 152.673 538.375 152.673 538.159V538.114C152.673 537.553 152.52 537.117 152.213 536.807C151.91 536.496 151.45 536.341 150.832 536.341C150.192 536.341 149.69 536.481 149.327 536.761C148.963 537.042 148.707 537.341 148.56 537.659L147.287 537.205C147.514 536.674 147.817 536.261 148.196 535.966C148.579 535.667 148.995 535.458 149.446 535.341C149.901 535.22 150.348 535.159 150.787 535.159C151.067 535.159 151.389 535.193 151.753 535.261C152.12 535.326 152.474 535.46 152.815 535.665C153.16 535.869 153.446 536.178 153.673 536.591C153.901 537.004 154.014 537.557 154.014 538.25V544H152.673V542.818H152.605C152.514 543.008 152.363 543.21 152.151 543.426C151.938 543.642 151.656 543.826 151.304 543.977C150.952 544.129 150.522 544.205 150.014 544.205ZM150.219 543C150.749 543 151.196 542.896 151.56 542.688C151.927 542.479 152.204 542.21 152.389 541.881C152.579 541.551 152.673 541.205 152.673 540.841V539.614C152.616 539.682 152.491 539.744 152.298 539.801C152.109 539.854 151.889 539.902 151.639 539.943C151.393 539.981 151.152 540.015 150.918 540.045C150.687 540.072 150.499 540.095 150.355 540.114C150.007 540.159 149.681 540.233 149.378 540.335C149.079 540.434 148.836 540.583 148.651 540.784C148.469 540.981 148.378 541.25 148.378 541.591C148.378 542.057 148.55 542.409 148.895 542.648C149.243 542.883 149.685 543 150.219 543ZM156.462 544V535.273H157.757V536.636H157.871C158.053 536.17 158.346 535.809 158.751 535.551C159.157 535.29 159.643 535.159 160.212 535.159C160.787 535.159 161.267 535.29 161.649 535.551C162.036 535.809 162.337 536.17 162.553 536.636H162.643C162.867 536.186 163.202 535.828 163.649 535.562C164.096 535.294 164.632 535.159 165.257 535.159C166.037 535.159 166.676 535.403 167.172 535.892C167.668 536.377 167.916 537.133 167.916 538.159V544H166.575V538.159C166.575 537.515 166.399 537.055 166.047 536.778C165.695 536.502 165.28 536.364 164.803 536.364C164.189 536.364 163.714 536.549 163.376 536.92C163.039 537.288 162.871 537.754 162.871 538.318V544H161.507V538.023C161.507 537.527 161.346 537.127 161.024 536.824C160.702 536.517 160.287 536.364 159.78 536.364C159.431 536.364 159.106 536.456 158.803 536.642C158.503 536.828 158.261 537.085 158.075 537.415C157.893 537.741 157.803 538.117 157.803 538.545V544H156.462ZM174.027 544.182C173.186 544.182 172.461 543.996 171.851 543.625C171.245 543.25 170.777 542.727 170.447 542.057C170.122 541.383 169.959 540.598 169.959 539.705C169.959 538.811 170.122 538.023 170.447 537.341C170.777 536.655 171.235 536.121 171.822 535.739C172.413 535.352 173.103 535.159 173.891 535.159C174.345 535.159 174.794 535.235 175.237 535.386C175.68 535.538 176.084 535.784 176.447 536.125C176.811 536.462 177.101 536.909 177.317 537.466C177.533 538.023 177.641 538.708 177.641 539.523V540.091H170.913V538.932H176.277C176.277 538.439 176.179 538 175.982 537.614C175.788 537.227 175.512 536.922 175.152 536.699C174.796 536.475 174.375 536.364 173.891 536.364C173.357 536.364 172.894 536.496 172.504 536.761C172.118 537.023 171.821 537.364 171.612 537.784C171.404 538.205 171.3 538.655 171.3 539.136V539.909C171.3 540.568 171.413 541.127 171.641 541.585C171.872 542.04 172.192 542.386 172.601 542.625C173.01 542.86 173.485 542.977 174.027 542.977C174.379 542.977 174.697 542.928 174.982 542.83C175.269 542.727 175.518 542.576 175.726 542.375C175.934 542.17 176.095 541.917 176.209 541.614L177.504 541.977C177.368 542.417 177.139 542.803 176.817 543.136C176.495 543.466 176.097 543.723 175.624 543.909C175.15 544.091 174.618 544.182 174.027 544.182ZM179.68 544V535.273H180.976V536.591H181.067C181.226 536.159 181.514 535.809 181.93 535.54C182.347 535.271 182.817 535.136 183.339 535.136C183.438 535.136 183.561 535.138 183.709 535.142C183.857 535.146 183.968 535.152 184.044 535.159V536.523C183.999 536.511 183.894 536.494 183.732 536.472C183.572 536.445 183.404 536.432 183.226 536.432C182.802 536.432 182.423 536.521 182.089 536.699C181.76 536.873 181.499 537.116 181.305 537.426C181.116 537.733 181.021 538.083 181.021 538.477V544H179.68ZM188.202 544.205C187.649 544.205 187.147 544.1 186.696 543.892C186.245 543.68 185.887 543.375 185.622 542.977C185.357 542.576 185.224 542.091 185.224 541.523C185.224 541.023 185.323 540.617 185.52 540.307C185.717 539.992 185.98 539.746 186.31 539.568C186.639 539.39 187.003 539.258 187.401 539.17C187.802 539.08 188.205 539.008 188.611 538.955C189.141 538.886 189.571 538.835 189.901 538.801C190.234 538.763 190.476 538.701 190.628 538.614C190.783 538.527 190.861 538.375 190.861 538.159V538.114C190.861 537.553 190.707 537.117 190.401 536.807C190.098 536.496 189.637 536.341 189.02 536.341C188.38 536.341 187.878 536.481 187.514 536.761C187.151 537.042 186.895 537.341 186.747 537.659L185.474 537.205C185.702 536.674 186.005 536.261 186.384 535.966C186.766 535.667 187.183 535.458 187.634 535.341C188.088 535.22 188.535 535.159 188.974 535.159C189.255 535.159 189.577 535.193 189.94 535.261C190.308 535.326 190.662 535.46 191.003 535.665C191.348 535.869 191.634 536.178 191.861 536.591C192.088 537.004 192.202 537.557 192.202 538.25V544H190.861V542.818H190.793C190.702 543.008 190.55 543.21 190.338 543.426C190.126 543.642 189.844 543.826 189.491 543.977C189.139 544.129 188.709 544.205 188.202 544.205ZM188.406 543C188.937 543 189.384 542.896 189.747 542.688C190.115 542.479 190.391 542.21 190.577 541.881C190.766 541.551 190.861 541.205 190.861 540.841V539.614C190.804 539.682 190.679 539.744 190.486 539.801C190.296 539.854 190.077 539.902 189.827 539.943C189.58 539.981 189.34 540.015 189.105 540.045C188.874 540.072 188.687 540.095 188.543 540.114C188.194 540.159 187.868 540.233 187.565 540.335C187.266 540.434 187.024 540.583 186.838 540.784C186.656 540.981 186.565 541.25 186.565 541.591C186.565 542.057 186.738 542.409 187.082 542.648C187.431 542.883 187.872 543 188.406 543Z" fill="#493986"/>
</svg>
